<?xml version="1.0" standalone="no"?>
<!DOCTYPE svg PUBLIC "-//W3C//DTD SVG 1.1//EN" "http://www.w3.org/Graphics/SVG/1.1/DTD/svg11.dtd" >
<!--
Copyright (c) 2016, onlinewebfonts.Com
-->
<svg>
<metadata>
Created by FontForge 20120731 at Thu Jul  4 19:33:52 2019
 By www
Copyright (c) 2016, onlinewebfonts.Com
</metadata>
<defs>
<font id="onlinewebfonts" horiz-adv-x="1000" >
  <font-face 
    font-family="onlinewebfonts"
    font-weight="400"
    font-stretch="normal"
    units-per-em="1000"
    panose-1="2 0 5 9 0 0 0 0 0 0"
    ascent="800"
    descent="-200"
    bbox="9.90039 -199.9 990.1 800"
    underline-thickness="50"
    underline-position="-100"
    unicode-range="U+E010-E07F"
  />
    <missing-glyph />
    <glyph glyph-name="uniE010" unicode="&#xe010;" 
d="M146.3 472.8c16.7998 0 31.1006 -5.7998 42.7998 -17.5c11.7002 -11.7002 17.5 -25.8994 17.5 -42.7998v-253.6c0 -16.2002 -5.7998 -30.3008 -17.5 -42.3008c-11.6992 -12 -25.8994 -18 -42.7998 -18c-16.7998 0 -31.2998 5.80078 -43.2002 17.5
c-12 11.7002 -18 25.9004 -18 42.8008v253.6c0 16.7998 6 31.0996 18 42.7998c11.9004 11.6006 26.3008 17.5 43.2002 17.5zM633.1 700.2c42.1006 -21.4004 75.8008 -51.5 101.101 -90.4004c25.2998 -38.8994 37.8994 -81.2998 37.8994 -127.3h-544.199
c0 46 12.5996 88.4004 37.8994 127.3c25.2998 38.9004 59 69 101.101 90.4004l-42.8008 76.7998c-2.59961 5.7998 -1.2998 9.7002 3.90039 11.7002c5.2002 2.59961 8.7002 1.2998 10.7002 -3.90039l42.7998 -76.7998c37.5996 16.2002 77.0996 24.2998 118.6 24.2998
c42.1006 0 81.6006 -8.39941 118.601 -25.2998l42.7998 78.7002c1.90039 4.5 5.5 5.5 10.7002 2.89941c5.2002 -1.89941 6.5 -5.7998 3.89941 -11.6992zM375.6 580.6c6.5 0 12 2.30078 16.5 6.80078s6.80078 10 6.80078 16.5s-2.30078 11.7998 -6.80078 16
c-4.5 4.19922 -10 6.2998 -16.5 6.2998s-11.7998 -2.10059 -16 -6.2998c-4.19922 -4.2002 -6.2998 -9.60059 -6.2998 -16c0 -6.5 2.10059 -12 6.2998 -16.5c4.2002 -4.5 9.5 -6.80078 16 -6.80078zM624.4 580.6c6.5 0 11.7998 2.30078 16 6.80078
c4.19922 4.5 6.2998 10 6.2998 16.5s-2.2998 11.7998 -6.7998 16c-4.5 4.19922 -9.7002 6.2998 -15.5 6.2998c-6.5 0 -12 -2.10059 -16.5 -6.2998c-4.5 -4.2002 -6.80078 -9.60059 -6.80078 -16c0 -6.5 2.30078 -12 6.80078 -16.5s10 -6.80078 16.5 -6.80078zM229.8 461.1
h540.3v-391.6c0 -18.0996 -6.2998 -33.5 -18.8994 -46.2002c-12.6006 -12.5996 -27.7002 -19 -45.2002 -19h-44.7002v-134c0.600586 -16.2002 -5 -30.2998 -17 -42.2998s-26.3994 -18 -43.2002 -18c-16.7998 0 -31.0996 5.7998 -42.7998 17.5s-17.5 25.9004 -17.5 42.7998
v134.101h-81.5996v-134.101c0 -16.7998 -5.7998 -31.0996 -17.5 -42.7998s-25.9004 -17.5 -42.7998 -17.5c-16.9004 0 -31.1006 5.7998 -42.8008 17.5c-11.6992 11.7002 -17.5 25.9004 -17.5 42.7998v134.101h-44.5996c-17.5 0 -32.5996 6.2998 -45.2002 19
c-12.5996 12.5996 -18.8994 27.6992 -18.8994 45.1992v392.5h-0.100586zM915 412.5v-253.6c0 -16.8008 -6 -31.1006 -18 -42.8008c-12 -11.6992 -26.4004 -17.5 -43.2002 -17.5s-31.0996 6 -42.7998 18s-17.5 26.1006 -17.5 42.3008v253.6
c0 16.7998 5.7998 31.0996 17.5 42.7998s25.9004 17.5 42.7998 17.5c16.7998 0 31.2998 -5.7998 43.2002 -17.5c12 -11.7002 18 -25.8994 18 -42.7998z" />
    <glyph glyph-name="uniE011" unicode="&#xe011;" 
d="M671.1 583.9l-62.1992 -179.9l64.1992 -11.7002c60.3008 163.3 90.4004 257.601 90.4004 282.9c0 20.7002 -7.09961 31.0996 -21.4004 31.0996c-18.7998 0.100586 -42.5 -40.7002 -71 -122.399zM507.8 207.6c1.90039 -5.19922 5 -13.0996 9.2002 -23.7998
s7.2998 -18.5996 9.2002 -23.7998c13.5996 14.9004 26.2998 26.9004 37.8994 36l-17.5 2.90039s-7.09961 1.2998 -21.3994 3.89941c-14.2002 2.60059 -20 4.2002 -17.4004 4.7998zM348.3 697.6c0 -33.0996 28.7998 -128 86.5 -284.899
c6.5 3.89941 15.2002 5.7998 26.2002 5.7998c0.599609 0 14.5996 -1 41.7998 -2.90039l-66.0996 191.5c-0.600586 0.600586 -2.2998 5 -4.90039 13.1006c-2.59961 8.09961 -5 14.8994 -7.2998 20.3994s-5.2002 13 -8.7998 22.4004
c-3.60059 9.40039 -7.10059 17.5 -10.7002 24.2998s-7.2998 13.4004 -11.2002 19.9004c-3.89941 6.5 -7.89941 11.5 -12.2002 15.0996c-4.19922 3.60059 -8.2998 5.2998 -12.1992 5.2998c-13.9004 0.200195 -21.1006 -9.89941 -21.1006 -30zM304.6 282.5
c0 -20.7002 19.8008 -57 59.3008 -108.9c39.5 -51.8994 69 -77.7998 88.5 -77.7998c4.5 0 8.89941 2.2998 13.0996 6.7998s6.2998 9.40039 6.2998 14.6006c0 1.89941 -5.5 20.7002 -16.5 56.3994c-43.3994 99.8008 -80.7002 149.7 -111.8 149.7
c-7.09961 0 -15.4004 -5 -24.7998 -15.0996c-9.40039 -10 -14.1006 -18.6006 -14.1006 -25.7002zM218.1 98.7998c0 -13 4.5 -31.7998 13.6006 -56.3994c22 -53.1006 55.7002 -94.6006 101.1 -124.4c45.4004 -29.7998 96.6006 -44.7002 153.601 -44.7002
c82.2998 0 152 31.1006 209 93.2998c55.6992 60.9004 83.5996 138.7 83.5996 233.301c0 53.0996 -8.09961 86.8994 -24.2998 101.1c-20.1006 18.0996 -58.5 31.9004 -115.2 41.2998c-56.7002 9.40039 -106.1 14.1006 -148.3 14.1006
c-14.2998 0 -23.2998 -1.90039 -27.2002 -5.80078c-3.90039 -1.89941 -5.7998 -8.09961 -5.7998 -18.5c0 -51.8994 72.2998 -77.0996 216.8 -75.7998h12.5996c9.10059 0 16.2002 -3.59961 21.4004 -10.7002c5.7998 -6.5 9.40039 -16.5 10.7002 -30.0996
c-8.40039 -9.09961 -25.9004 -19.0996 -52.5 -30.0996c-21.4004 -7.10059 -38.2002 -15.2002 -50.6006 -24.3008c-23.2998 -16.8994 -43.0996 -37.7998 -59.2998 -62.6992c-16.2002 -25 -24.2998 -50.1006 -24.2998 -75.3008c0 -11 3.2002 -27.0996 9.7002 -48.0996
c6.5 -21.0996 9.7002 -36.7998 9.7002 -47.2002c0 -7.09961 -1.30078 -12 -3.90039 -14.5996c-48.5996 3.2002 -75.2002 42.5 -79.7002 117.6c-1.89941 -0.599609 -9.09961 -1 -21.3994 -1c0 -1.2998 0.199219 -3.2002 0.5 -5.7998c0.299805 -2.59961 0.5 -4.5 0.5 -5.7998
c0 -19.4004 -7.5 -35.7998 -22.4004 -49.1006c-14.7998 -13.3994 -32 -20.0996 -51.4004 -20.0996c-30.5 0 -61.0996 14.2998 -91.8994 42.7998s-46.2002 57.7002 -46.2002 87.5c0 11.7002 6.2002 23.7002 18.5 36c3.2002 -4.5 8.7002 -11.2998 16.5 -20.3994
c7.7998 -9.10059 13.2998 -15.9004 16.5 -20.4004c27.9004 -38.2002 52.2002 -57.4004 72.9004 -57.4004c4.5 0 9.19922 1.60059 14.0996 4.90039c4.90039 3.2002 7.2998 6.7998 7.2998 10.7002c0 13 -15.8994 39.7002 -47.5996 80.2002
c-31.7998 40.5 -52.7998 60.7998 -63.2002 60.7998c-15.5996 0 -28.4004 -8.2998 -38.4004 -24.7998c-10 -16.6006 -15 -33.3008 -15 -50.1006zM155.8 94.9004c0 73.1992 32.7002 118.899 98.2002 137.1c-10.4004 27.9004 -15.5996 46.7002 -15.5996 56.4004
c0 22.6992 11.1992 45.1992 33.5 67.5996c22.3994 22.4004 44.5996 33.5 66.5996 33.5c11 0 24 -2.90039 38.9004 -8.7002c-59.6006 166.601 -89.4004 270 -89.4004 310.101c0 29.1992 7.5 53 22.4004 71.5c14.8994 18.5 36.5996 27.6992 65.0996 27.6992
c48 0 108.6 -110.199 181.8 -330.6c1.90039 4.5 8.60059 22.5 19.9004 54s22 59.2998 32.0996 83.5996c10 24.3008 22.5 51.2002 37.4004 80.7002c14.8994 29.5 30.5 52.5 46.7002 69c16.1992 16.5 32.3994 24.7998 48.5996 24.7998
c26.5996 0 47.2002 -8.7998 61.7002 -26.2998c14.5996 -17.5 21.8994 -39.8994 21.8994 -67.0996c0 -39.5 -28.7998 -139.7 -86.5 -300.4c42.1006 -10.3994 70.2002 -30.5996 84.1006 -60.7998c13.8994 -30.0996 20.8994 -69.7998 20.8994 -119.1
c0 -111.5 -33.1992 -204 -99.6992 -277.601c-66.3008 -73.5 -155 -110.3 -265.801 -110.3c-39.5 0 -80 7.7998 -121.5 23.2998c-54.3994 20.1006 -101.6 54.7998 -141.5 104c-39.7998 49.2998 -59.7998 101.8 -59.7998 157.601z" />
    <glyph glyph-name="uniE012" unicode="&#xe012;" 
d="M767.1 268.9c0.700195 -27.9004 5.5 -53.6006 14.7998 -77.2002c9.10059 -23.7002 19.8008 -42.5 32.1006 -56.4004c12.2998 -14 25.0996 -26.0996 38.3994 -36.5c13.3008 -10.3994 24 -17.5 32.1006 -21.3994c8.09961 -3.90039 12.7998 -5.80078 14.0996 -5.80078
c-11 -43.3994 -33.3994 -90.0996 -67.0996 -140c-17.5 -25.2998 -32 -44.8994 -43.2998 -58.7998c-11.4004 -13.8994 -26.9004 -27.5 -46.7002 -40.7998s-40.1006 -20.2998 -60.7998 -20.9004c-21.4004 0 -47.3008 6.40039 -77.8008 19.4004
c-30.5 12.9004 -58.2998 19.4004 -83.5996 19.4004c-26.5 0 -55.2002 -6.40039 -86 -19.4004c-30.7998 -12.9004 -55.5996 -19.7998 -74.4004 -20.4004c-20.0996 -0.699219 -40.1992 5.80078 -60.2998 19.4004c-20.0996 13.5996 -36.5996 28.0996 -49.5996 43.7002
c-12.9004 15.5 -27.7998 35.8994 -44.7002 61.2002c-29.7998 42.7998 -54.2998 91.8994 -73.4004 147.3c-19.1992 55.3994 -28.8994 115.2 -29.1992 179.399c-0.400391 64.1006 13.0996 119.9 40.2998 167.2c21.3994 37 50 66.5 86 88.5s74.7002 33.4004 116.2 34
c23.2998 0.600586 53.5 -6.2998 90.3994 -20.8994c36.9004 -14.6006 60.9004 -21.9004 71.9004 -21.9004c7.7998 0 33.7002 8.09961 77.7998 24.2998c44.1006 16.2002 80.7002 23 109.9 20.4004c78.3994 -5.2002 138.1 -37.6006 178.899 -97.2002
c-4.5 -2.5 -9.09961 -5.5 -13.5996 -8.7002c-4.59961 -3.2998 -13 -10.7998 -25.2998 -22.3994c-12.2998 -11.6006 -23 -23.9004 -32.1006 -36.9004c-9.09961 -12.9004 -17.1992 -30.0996 -24.2998 -51.5c-7.09961 -21.4004 -10.7002 -43.7998 -10.7002 -67.0996z
M643.6 633.5c-18.0996 -22 -40.2998 -39.7002 -66.5996 -53s-52.2998 -18.5996 -78.2998 -16c-7.10059 51.7998 10 102.4 51.5 151.7c18.0996 20.7002 40.7002 38.0996 67.5996 52c26.9004 13.8994 52.7002 21.2002 77.2998 21.8994
c5.90039 -55.1992 -11.2998 -107.399 -51.5 -156.6z" />
    <glyph glyph-name="uniE013" unicode="&#xe013;" 
d="M893.7 566.2v-59.5h-244.101v59.5h244.101zM773.8 362.9c-28.8994 0 -52.2998 -8.5 -70.2002 -25.5c-17.8994 -17 -27.5996 -39.7002 -29.2998 -68h194.7c-5.59961 62.3994 -37.4004 93.5 -95.2002 93.5zM781.4 82.2998c19.7998 0 39.2998 5.10059 58.2998 15.2998
c19 10.2002 31 24.1006 36.0996 41.7002h105.5c-31.7002 -97.5996 -99.7998 -146.3 -204.1 -146.3c-68.6006 0 -123 21 -163.3 62.9004c-40.3008 42 -60.4004 97.5 -60.4004 166.699c0 65.8008 20.7998 120.601 62.5 164.601c41.7002 43.8994 95.4004 65.8994 161.2 65.8994
c66.2998 0 118.899 -22.7998 157.8 -68.5c38.7998 -45.5996 57.0996 -101.6 54.9004 -168l-0.900391 -23h-314.7c0 -35.1992 9.2002 -62.5 27.6006 -82.0996c18.3994 -19.5 44.8994 -29.2002 79.5 -29.2002zM142.7 106.9h142c65.2002 0 97.7998 26.6992 97.7998 80
c0 57.2998 -31.7998 85.8994 -95.2998 85.8994h-144.5v-165.899zM142.7 363.8h134.399c53.9004 0 80.8008 23.7998 80.8008 71.4004c0 45.8994 -30.3008 68.8994 -91 68.8994h-124.2v-140.3zM10 607h284.1c128.7 0 193.101 -49.5996 193.101 -148.8
c0 -58.4004 -27.5 -100.4 -82.5 -125.9c73.0996 -21 109.7 -72 109.7 -153.1c0 -57.7998 -20.4004 -101.5 -61.2002 -131s-91.2998 -44.2002 -151.4 -44.2002h-291.8v603z" />
    <glyph glyph-name="uniE014" unicode="&#xe014;" 
d="M500 790c116.7 0 216.6 -13.7998 299.9 -41.2998c83.2998 -27.5 124.899 -60.7998 124.899 -99.7002c0 -13.5996 -24 -157.5 -71.8994 -431.7c-5.2002 -29.7998 -41.2002 -58.7998 -107.9 -87c-66.7998 -28.2002 -148.4 -42.2998 -245 -42.2998v1v-1
c-96.5996 0 -178.2 14.0996 -245 42.2998s-102.7 57.2002 -107.9 87c-48 274.2 -72 418.101 -72 431.7c0 38.9004 41.6006 72.0996 124.9 99.7002c83.4004 27.5 183.3 41.2998 300 41.2998v0zM500 182.4c37.5996 0 69.5 13.0996 95.7998 39.3994
c26.2002 26.2998 39.4004 58.2002 39.4004 95.7998c0 37.6006 -13.1006 69.5 -39.4004 95.8008c-26.2998 26.2998 -58.2002 39.3994 -95.7998 39.3994s-69.5 -13.0996 -95.7998 -39.3994c-26.2002 -26.2002 -39.4004 -58.2002 -39.4004 -95.8008
c0 -37.5996 13.1006 -69.5 39.4004 -95.7998s58.2002 -39.3994 95.7998 -39.3994zM500 605.3c74.5 0 138.5 5.7002 192 17s80.2002 24.7998 80.2002 40.2998c0 16.2002 -26.6006 30 -79.7002 41.3008c-53.0996 11.2998 -117.3 17 -192.5 17
c-74.5 0.599609 -138.5 -4.7002 -192 -16c-53.5 -11.3008 -80.2002 -25.1006 -80.2002 -41.3008c0 -16.1992 26.4004 -29.7998 79.2002 -40.7998s117.2 -16.8994 193 -17.5zM805.3 99.7002c9.7002 0 14.6006 -5.5 14.6006 -16.5v-2.90039
c-17.5 -93.2998 -27.5 -146.2 -30.1006 -158.5c-7.09961 -31.7998 -38.3994 -58.2998 -93.7998 -79.7002c-55.5 -21.3994 -120.8 -32.0996 -196 -32.0996v0v0c-75.2002 0 -140.5 10.7002 -195.9 32.0996c-55.3994 21.4004 -86.6992 48 -93.7998 79.7002
c-2.59961 12.2998 -12.5996 65.1006 -30.0996 158.5v2.90039c0 11 4.89941 16.5 14.5996 16.5c4.5 0 8.40039 -1.2998 11.7002 -3.90039c31.0996 -24.5996 71.0996 -43.8994 120.1 -57.7998c48.9004 -13.9004 89.9004 -21.5 123 -22.7998l50.6006 -1.90039
c5.2002 0 12.2998 0.200195 21.3994 0.5c9.10059 0.299805 26.3008 1.90039 51.5 4.90039c25.3008 2.89941 49.6006 7 72.9004 12.2002c23.2998 5.19922 48.9004 13.3994 76.7998 24.7998c27.9004 11.2998 51.5 24.7998 71 40.2998zM568.1 317.5
c0 -18.0996 -6.69922 -33.9004 -19.8994 -47.2002c-13.2998 -13.2998 -29.2998 -19.8994 -48.1006 -19.8994c-18.7998 0 -34.7998 6.59961 -48.0996 19.8994s-19.9004 29.1006 -19.9004 47.2002c0 18.7998 6.60059 34.7998 19.9004 48.0996
c13.2998 13.3008 29.2998 19.9004 48.0996 19.9004c18.8008 0 34.8008 -6.59961 48.1006 -19.9004c13.2998 -13.2998 19.8994 -29.2998 19.8994 -48.0996z" />
    <glyph glyph-name="uniE015" unicode="&#xe015;" 
d="M474.7 285.4c1.89941 -0.600586 6.2002 -1.60059 12.5996 -2.90039c6.5 -1.2998 12 -2.59961 16.5 -3.90039c4.5 -1.2998 10.9004 -2.89941 19 -4.89941c8.10059 -1.90039 14.7002 -3.90039 19.9004 -5.7998c5.2002 -1.90039 11.7002 -4.5 19.3994 -7.80078
c7.80078 -3.19922 13.8008 -6.5 18 -9.69922c4.2002 -3.2002 9.2002 -7.10059 15.1006 -11.7002c5.7998 -4.5 9.39941 -9.2002 10.7002 -14.1006c1.2998 -4.89941 3.09961 -10.5 5.2998 -17c2.2998 -6.5 1.7998 -13 -1.5 -19.3994
c-1.90039 -9.10059 -5.7998 -16.5 -11.7002 -22.4004c-5.7998 -5.7998 -13.4004 -9.89941 -22.7998 -12.2002c-9.40039 -2.2998 -17.7998 -3.89941 -25.2998 -4.89941s-17.7002 -0.299805 -30.6006 1.89941c-12.8994 2.2002 -22.3994 3.90039 -28.2002 4.90039
c-5.7998 1 -15.1992 3.09961 -28.1992 6.2998l-18.5 4.90039zM514.6 446.8c1.90039 -0.599609 6.60059 -1.7998 14.1006 -3.39941c7.5 -1.60059 13.5996 -3.10059 18.5 -4.40039c4.89941 -1.2998 11.7002 -3.2002 20.3994 -5.7998
c8.7002 -2.60059 15.6006 -5.2002 20.4004 -7.7998c4.90039 -2.60059 11 -6.2002 18.5 -10.7002s12.2002 -9.10059 14.0996 -13.6006l7.30078 -17s-0.200195 -7.2998 -0.5 -21.8994c-1.90039 -6.5 -4.5 -12.2002 -7.80078 -17
c-3.19922 -4.90039 -7.5 -8.60059 -12.5996 -11.2002c-5.2002 -2.59961 -10.4004 -4.7002 -15.5996 -6.2998c-5.2002 -1.60059 -11.5 -2.40039 -19 -2.40039s-13.6006 0.200195 -18.5 0.5c-4.90039 0.299805 -11.3008 1.2998 -19.4004 2.90039
c-8.09961 1.59961 -14.0996 2.89941 -18 3.89941s-9.40039 2.40039 -16.5 4.40039s-11 2.90039 -11.7002 2.90039zM500 790c134.8 0 250.2 -48 346.1 -143.9c95.9004 -95.8994 143.9 -211.3 143.9 -346.1s-48 -250.2 -143.9 -346.1
c-95.8994 -95.9004 -211.3 -143.9 -346.1 -143.9s-250.2 48 -346.1 143.9c-95.9004 95.8994 -143.9 211.3 -143.9 346.1s48 250.2 143.9 346.1c95.8994 95.9004 211.3 143.9 346.1 143.9zM733.3 361.3c8.40039 55.1006 -27.5 96.2998 -107.899 123.5l22.3994 88.5
l-54.3994 12.6006l-21.4004 -85.6006c-3.90039 0.600586 -10.7002 2.10059 -20.4004 4.40039c-9.69922 2.2998 -17.1992 4.09961 -22.3994 5.2998l21.3994 86.5l-53.5 13.5996l-22.3994 -88.5c-15.6006 3.90039 -26.9004 6.80078 -34 8.80078l-73.9004 18.5
l-14.5996 -57.4004l38.8994 -9.7002c18.1006 -4.5 26.6006 -14.8994 25.3008 -31.0996l-25.3008 -101.101c1.30078 0 3.2002 -0.599609 5.80078 -1.89941c-0.600586 0.599609 -1.60059 1 -2.90039 1s-2.2998 0.299805 -2.90039 1l-35 -141
c-5.19922 -11.7002 -13.2998 -15.9004 -24.2998 -12.6006l-39.8994 9.7002l-26.3008 -62.2002l70 -16.5c4.5 -1.2998 11 -3.09961 19.4004 -5.2998c8.40039 -2.2998 14.5996 -4.09961 18.5 -5.2998l-22.4004 -89.4004l54.4004 -12.5996l21.4004 88.5
c5.7998 -1.90039 13.7998 -4.2002 23.7998 -6.7998c10 -2.60059 16.3994 -4.2002 19 -4.90039l-21.4004 -87.5l53.5 -13.5996l22.4004 89.3994c31.0996 -5.19922 58.7998 -7.59961 83.0996 -7.2998s45.9004 7 64.7002 19.9004c18.7998 13 32.7002 32.7002 41.7998 59.2998
c20.7002 59.5996 4.2002 103.1 -49.5996 130.3c40.2998 9.5 63.2998 36 69.0996 79.5z" />
    <glyph glyph-name="uniE016" unicode="&#xe016;" 
d="M673.8 167.8c0 14.2998 -2.89941 26.9004 -8.7998 37.9004c-5.7998 11 -13.0996 19.8994 -21.9004 26.7002c-8.69922 6.7998 -20.0996 12.7998 -34 18c-13.8994 5.19922 -26.8994 8.89941 -38.8994 11.1992c-12 2.30078 -26.6006 3.90039 -43.7998 4.90039
c-17.2002 1 -30.8008 1.5 -40.8008 1.5s-22.6992 -0.200195 -37.8994 -0.5s-24.5 -0.5 -27.7002 -0.5v-199.4c1.90039 0 10 -0.199219 24.2998 -0.5c14.2998 -0.299805 25.2998 -0.299805 33.1006 0c7.7998 0.300781 19.5996 0.800781 35.5 1.5
c15.8994 0.600586 28.7998 1.90039 38.8994 3.90039c10 1.90039 22 4.40039 36 7.2998c13.9004 2.90039 25.2998 7 34 12.2002s17.5 11.2002 26.2002 18c8.7998 6.7998 15.2002 15.0996 19.4004 24.7998c4.2998 9.60059 6.39941 20.7002 6.39941 33zM632 447.8
c0 14.9004 -2.7998 27.9004 -8.2998 38.9004s-13.9004 19.5996 -25.2998 25.7998c-11.3008 6.2002 -22.4004 11.2998 -33.1006 15.5996c-10.7002 4.2002 -24.5 7 -41.2998 8.30078c-16.9004 1.2998 -29.7998 2.09961 -38.9004 2.39941
c-9.09961 0.299805 -21.6992 0.299805 -37.8994 0s-25.2998 -0.5 -27.2002 -0.5v-180.899c1.90039 0 8.7002 -0.200195 20.4004 -0.5c11.6992 -0.300781 20.6992 -0.300781 27.1992 0c6.5 0.299805 16.4004 0.799805 29.7002 1.5
c13.2998 0.599609 24.1006 1.7998 32.6006 3.39941c8.5 1.60059 18.5 3.7002 30.0996 6.2998c11.5996 2.60059 21.2002 6.2002 28.7002 10.7002s14.7002 9.90039 21.8994 16c7.10059 6.2002 12.5 13.7998 16 22.7998c3.7002 9.10059 5.40039 19.2002 5.40039 30.2002z
M852.7 149.3c-6.5 -66.7998 -32.4004 -113.899 -77.7998 -141.5c-45.4004 -27.5 -110.2 -43.5996 -194.4 -48.0996v-149.7h-90.4004l1 147.8c-31.7998 0 -56.0996 0.299805 -72.8994 1v-148.8h-90.4004v149.7c-13.5996 0.599609 -35 1 -64.2002 1h-117.699l17.5 107.899
h66.0996c19.4004 0 30.7998 10 34 30.1006v406.399c-5.7998 26.6006 -23.2998 39.9004 -52.5 39.9004h-65.0996v96.2998h124.399h57.4004v148.7h90.3994v-145.8c16.2002 0.599609 40.2002 1 71.9004 1v144.8h90.4004v-148.7c64.7998 -5.2002 116.3 -19.3994 154.6 -42.7998
s60 -60 65.0996 -109.9c7.10059 -71.2998 -18.7998 -122.199 -77.7998 -152.6c96.7002 -22.7002 140.2 -84.9004 130.4 -186.7z" />
    <glyph glyph-name="uniE017" unicode="&#xe017;" 
d="M500 -115.1l202.2 193.5l-141 402.5l141 189.6h-404.4l141 -189.6l-141 -402.5zM990 790v-980h-980v980h980z" />
    <glyph glyph-name="uniE018" unicode="&#xe018;" 
d="M576.8 552.8l176 -501.7l-252.8 -241.1l-252.8 241.1l176 501.7l-176 237.2h505.6z" />
    <glyph glyph-name="uniE019" unicode="&#xe019;" 
d="M601.1 169.7h-202.199l101.1 377.2zM659.4 -50h212.899l-221.6 700h-300.4l-222.7 -700h212.9v0l261.5 214.9zM885 -190h-770c-29.2002 0 -54 10.2002 -74.4004 30.5996c-20.3994 20.4004 -30.5996 45.2002 -30.5996 74.4004v770c0 29.2002 10.2002 54 30.5996 74.4004
c20.4004 20.3994 45.2002 30.5996 74.4004 30.5996h770c29.2002 0 54 -10.2002 74.4004 -30.5996c20.3994 -20.4004 30.5996 -45.2002 30.5996 -74.4004v-770c0 -29.2002 -10.2002 -54 -30.5996 -74.4004c-20.4004 -20.3994 -45.2002 -30.5996 -74.4004 -30.5996z" />
    <glyph glyph-name="uniE01A" unicode="&#xe01a;" 
d="M990 -160.7h-279.7l-75.8994 282.5l-344.7 -282.5v0h-279.7l292.5 921.5h394.9zM367.4 129h265.1l-132.5 495.5z" />
    <glyph glyph-name="uniE01B" unicode="&#xe01b;" 
d="M497.4 253.2c31.1992 0 46.7998 -12.7998 46.7998 -38.2998c0 -6.2002 -0.900391 -11.8008 -2.60059 -16.6006c-1.69922 -4.7998 -4.5 -8.5 -8.5 -11.0996c-4 -2.60059 -7.69922 -4.7002 -11.0996 -6.40039s-8.40039 -2.7998 -14.9004 -3.39941
c-6.5 -0.600586 -11.5996 -1 -15.2998 -1.30078c-3.7002 -0.299805 -9.09961 -0.299805 -16.2002 0c-7.09961 0.300781 -11.7998 0.400391 -14 0.400391v-38.2998h-53.5996l-34 37.3994l-34.9004 -37.3994h-109.6v114.8h111.4l33.1992 -37.4004l35.7002 37.4004h87.6006
v0.200195zM324.8 162.2l31.5 34l-29.7998 33.2002h-68.9004v-21.3008h60.4004v-23h-60.4004v-23h67.2002v0.100586zM434.5 148.6v92.7002l-42.5 -45.8994zM497.4 200.5c11.2998 0 17 4.7998 17 14.5s-5.7002 14.5 -17 14.5h-35.7002v-28.9004h35.7002v-0.0996094z
M774.8 229.4h-64.7002v-21.3008h63v-23h-63v-23h64.7002v-23.7998h-91.8994v114.8h91.8994v-23.6992zM667.6 222.6c0 -15.8994 -6.5 -26.0996 -19.5996 -30.5996c11.9004 -4.5 17.9004 -15 17.9004 -31.5v-22.0996h-27.2002v14.5
c0 11.2998 -1.40039 18.6992 -4.2998 22.0996c-2.80078 3.40039 -9.60059 5.09961 -20.4004 5.09961h-29.7998v-41.6992h-27.2002v114.8h65.5c30.0996 0 45.0996 -10.2002 45.0996 -30.6006zM619.1 203.9c11.9004 0 17.9004 4.2998 17.9004 12.7998
s-6 12.7998 -17.9004 12.7998h-34.8994v-25.5h34.8994v-0.0996094zM228.6 373.2l33.2002 78.2998h45.9004v-114.9h-28.9004v90.2002l-40 -90.2002h-23.7998l-40 90.2002v-90.2002h-56.0996l-10.2002 25.5h-57.9004l-10.2002 -25.5h-30.5996l49.2998 114.801h40.7998
l47.6006 -108.9v108.9h44.2998zM61 385.9h37.4004l-18.7002 45.8994zM990 228.5h-50.2002c-10.2002 0 -15.2998 -3.40039 -15.2998 -10.2002c0 -5.7002 4.09961 -8.7998 12.2998 -9.39941c8.2002 -0.600586 18 -1.30078 29.2998 -2.10059
c11.3008 -0.899414 19.3008 -4.39941 23.8008 -10.5996v-43.4004c-6.80078 -9.59961 -19.3008 -14.5 -37.4004 -14.5h-52.7002v24.7002h52.7002c9.59961 0 14.5 3.40039 14.5 10.2002c0 5.09961 -3.7002 8.39941 -11.0996 9.7998
c-7.40039 1.40039 -15.6006 2 -24.7002 1.7002c-9.10059 -0.299805 -17.2998 2.2998 -24.7002 7.7002c-7.40039 5.39941 -11.0996 14.2998 -11.0996 26.7998c0 10.7998 3.69922 19.0996 11.0996 25.0996s17 8.90039 28.9004 8.90039h54.5996v23h-51
c-14.2002 0 -25.5 -3.10059 -34 -9.40039v9.40039h-75.7002c-15.8994 0 -26.8994 -3.10059 -33.2002 -9.40039v9.40039h-134.5v-9.40039c-8.5 6.2002 -21 9.40039 -37.3994 9.40039h-88.5v-9.40039c-6.2002 6.2002 -19.2998 9.40039 -39.1006 9.40039h-99.5
l-22.0996 -24.7002l-21.2998 24.7002h-148.9v-160.8h145.5l23.7998 24.6992l22.1006 -24.6992h89.2998v37.3994c21.5996 0 37.4004 2 47.5996 6v-43.3994h74v41.6992c5.7002 0 8.5 -1.39941 8.5 -4.2998v-37.3994h225.4c15.9004 0 28.4004 3.39941 37.4004 10.1992v-10.1992
h71.5996c15.9004 0 29.2002 2.59961 40 7.69922v-190.6h-980v381.1h46.7998l11.1006 25.5h23.7998l10.2002 -25.5h92.6992v19.6006l8.5 -19.6006h47.6006l8.5 20.4004v-20.4004h229.7v42.5h1.69922c4.5 0 6.80078 -2 6.80078 -6v-36.5996h119.1v10.2002
c11.9004 -6.7998 26.7002 -10.2002 44.2002 -10.2002h50.2998l11.0996 25.5h23.8008l10.1992 -25.5h96.1006v24.7002l14.5 -24.7002h77.3994v160.8h-76.5996v-18.7002l-10.2002 18.7002h-78.2998v-18.7002l-10.2002 18.7002h-106.3
c-18.7002 0 -34 -3.09961 -45.9004 -9.39941v9.39941h-73.1992v-9.2998c-6.80078 6.2002 -17 9.40039 -30.6006 9.40039h-268l-17.8994 -41.7002l-17.9004 41.7002h-84.2002v-18.7002l-9.39941 18.7002h-72.2002l-33.2002 -76.6006v269.7h980v-439zM791.8 163h52.7002
c9.59961 0 14.5 3.40039 14.5 10.2002c0 5.09961 -3.7002 8.39941 -11.0996 9.7998c-7.40039 1.40039 -15.5 2 -24.2002 1.7002c-8.7998 -0.299805 -16.9004 2.2998 -24.2002 7.7002c-7.2998 5.39941 -11.0996 14.2998 -11.0996 26.7998
c0 10.7998 3.69922 19.0996 11.0996 25.0996s16.7002 8.90039 28.0996 8.90039h55.3008v-24.7002h-50.2002c-10.2002 0 -15.2998 -3.40039 -15.2998 -10.2002c0 -5.09961 3.69922 -8.2002 11.0996 -9.39941c7.40039 -1.2002 15.5996 -1.40039 24.7002 -0.900391
c9.09961 0.599609 17.2998 -1.7998 24.7002 -7.2002c7.39941 -5.39941 11.0996 -14.2998 11.0996 -26.7998c0 -23.7998 -14.5 -35.7002 -43.4004 -35.7002h-53.5996v24.7002h-0.200195zM420 427.6h-64.7002v-20.3994h63v-23.7998h-63v-23h64.7002v-23.8008h-91.9004v114.801
h91.9004v-23.8008zM549.3 420.8c0 -15.8994 -6.2002 -26.0996 -18.7002 -30.5996c11.9004 -4.5 17.9004 -15 17.9004 -31.5v-22.1006h-28.0996v14.4004c0 11.2998 -1.30078 18.7002 -3.80078 22.0996c-2.59961 3.40039 -9.5 5.10059 -20.7998 5.10059h-28.8994v-41.7002
h-28.1006v114.8h65.5c30 0.100586 45 -10.0996 45 -30.5zM500.9 402.1c12.5 0 18.6992 4.5 18.6992 13.6006c0 7.89941 -6 11.8994 -17.8994 11.8994h-34.9004v-25.5h34.1006zM690.6 426.8c-2.2998 0 -6.39941 0.100586 -12.2998 0.400391
c-6 0.299805 -10.0996 0.299805 -12.2998 0c-2.2998 -0.299805 -5.5 -0.700195 -9.7998 -1.2998c-4.2998 -0.600586 -7.2002 -1.60059 -8.90039 -3c-1.7002 -1.40039 -3.7002 -3.30078 -6 -5.5c-2.2998 -2.30078 -3.7998 -5.40039 -4.7002 -9.40039
c-0.899414 -4 -1.2998 -8.5 -1.2998 -13.5996c0 -22.1006 9.10059 -33.2002 27.2002 -33.2002h11.9004l39.0996 90.2002h40.7998l46.7998 -108.9v108.9h41.7002l48.5 -80v80h28.9004v-114.801h-39.1006l-52.6992 85.9004v-85.9004h-56.1006l-10.2998 25.5h-57.7998
l-10.2002 -25.5h-32.2998c-36.2998 0 -54.4004 18.7002 -54.4004 56.1006c0 39.0996 19 58.7002 57 58.7002h26.4004v-24.6006h-0.100586zM733.1 431.9l-18.6992 -45.9004h38.2998zM565.5 451.4h28.0996v-114.801h-28.0996v114.801z" />
    <glyph glyph-name="uniE01C" unicode="&#xe01c;" 
d="M157.2 363.8c0 -13.5996 -5.10059 -25 -15.2998 -34c-7.90039 -7.39941 -20.1006 -11.0996 -36.6006 -11.0996h-6.7998v91h6.7998c16.4004 0 28.6006 -3.7002 36.6006 -11.1006c10.1992 -9 15.2998 -20.5996 15.2998 -34.7998zM888.8 391
c0 -14.2002 -8.5 -21.2998 -25.5 -21.2998h-8.5v41.7002h8.5c17 0 25.5 -6.80078 25.5 -20.4004zM184.4 363.8c0 20.4004 -6.90039 37 -20.8008 49.7998c-13.8994 12.8008 -31.5996 19.1006 -53.1992 19.1006h-39.1006v-137h39.1006
c20.3994 0 36.8994 5.09961 49.2998 15.2998c16.5 13.7002 24.7002 31.2998 24.7002 52.7998zM197.2 295.7h26.3994v137h-26.3994v-137zM329 337.4c0 10.7998 -2.7998 19.0996 -8.5 25.0996s-16.2002 11.7998 -31.5 17.4004
c-13.5996 5.09961 -20.4004 11.0996 -20.4004 17.8994c0 9.60059 6.5 14.5 19.6006 14.5c7.89941 0 15.2998 -3.7002 22.0996 -11.0996l13.6006 18.7002c-10.8008 10.1992 -24.1006 15.2998 -40 15.2998c-12.5 0 -22.8008 -3.7002 -31 -11.1006
c-8.2002 -7.39941 -12.3008 -16.6992 -12.3008 -28.0996c0 -9.59961 2.40039 -17.2998 7.2002 -23s13.7998 -10.7998 26.7998 -15.2998c9.60059 -3.40039 15.9004 -6 18.7002 -7.7002c5.10059 -3.40039 7.7002 -8.2002 7.7002 -14.5c0 -5.7002 -2 -10.4004 -6 -14
c-4 -3.7002 -8.7998 -5.5 -14.5 -5.5c-12.5 0 -22.4004 6.2002 -29.7998 18.7002l-17 -17c11.8994 -17 27.7998 -25.5 47.5996 -25.5c14.2002 0 25.7002 4.09961 34.5 12.2998c8.7998 8.40039 13.2002 19.2998 13.2002 32.9004zM232 -36.9004h727.3v259.5
c-47.5996 -35.1992 -136.3 -78.7998 -265.8 -131c-129.5 -52.1992 -283.4 -95 -461.5 -128.5zM443.9 300v31.5c-10.2002 -9.59961 -21.3008 -14.5 -33.2002 -14.5c-13 0 -24 4.40039 -32.7998 13.2002c-8.80078 8.7998 -13.2002 20 -13.2002 33.5996
c0 13.6006 4.2998 25 12.7998 34c8.5 9.10059 19.2998 13.6006 32.2998 13.6006c11.9004 0 23.2998 -5.10059 34 -15.3008v31.5c-11.2998 5.7002 -22.3994 8.5 -33.2002 8.5c-20.3994 0 -37.6992 -7.09961 -51.8994 -21.2998s-21.2998 -31.2002 -21.2998 -51
s6.89941 -36.7002 20.7998 -50.5996c13.8994 -13.9004 31 -20.7998 51.5 -20.7998c10.2998 -0.100586 21.7002 2.5 34.2002 7.59961zM600.4 363c0 21 -7.2002 38.7002 -21.7002 53.2002s-32.2002 21.7002 -53.2002 21.7002c-20.4004 0 -37.9004 -7.2002 -52.2998 -21.7002
c-14.5 -14.5 -21.7002 -32.2002 -21.7002 -53.2002c0 -20.4004 7.2002 -37.9004 21.7002 -52.2998c14.5 -14.5 31.8994 -21.7002 52.2998 -21.7002c21 0 38.7002 7.2002 53.2002 21.7002c14.5 14.3994 21.7002 31.7998 21.7002 52.2998zM663.3 291.5l58.7002 141.2h-28.9004
l-36.5996 -91.9004l-37.4004 91.9004h-28.8994l58.7002 -141.2h14.3994zM734.8 295.7h75.7002v23h-49.2998v37.3994h47.5996v23h-47.5996v30.6006h49.2998v23h-75.7002v-137zM895.6 295.7h33.2002l-43.3994 57.7998c21 3.40039 31.5 16.2002 31.5 38.2998
c0 27.2002 -16.2002 40.7998 -48.5 40.7998h-40v-137h26.3994v54.4004h4.2998zM990 667.5v-735h-980v735h980z" />
    <glyph glyph-name="uniE01D" unicode="&#xe01d;" 
d="M269.5 282.1h-6c-15.2998 0 -23 -5.09961 -23 -15.2998c0 -6.7998 3.40039 -10.2002 10.2002 -10.2002c12.5 0 18.7998 8.5 18.7998 25.5zM459.2 299.1h28.8994c1.7002 1.10059 1.7002 4.5 0 10.2002c-1.69922 5.7002 -5.69922 8.5 -11.8994 8.5
c-8.5 0.100586 -14.2002 -6.2002 -17 -18.7002zM717.8 282.1h-6c-15.2998 0 -23 -5.09961 -23 -15.2998c0 -6.7998 3.10059 -10.2002 9.40039 -10.2002c11.8994 0 18.3994 8.5 19.5996 25.5zM870.1 294.9c0 13 -4.7998 19.5996 -14.5 19.5996
c-5.69922 0 -10.5 -3.2998 -14.5 -9.7998s-6 -14.6006 -6 -24.2002c0 -13.5996 4.5 -20.4004 13.6006 -20.4004c6.2002 0 11.2998 3.30078 15.2998 9.80078c4.09961 6.39941 6.09961 14.7998 6.09961 25zM178.4 362.1h41.6992l-21.2998 -125.899h-26.3994l15.2998 97
l-34 -97h-18.7002l-2.59961 96.0996l-16.2002 -96.0996h-24.5l20.3994 125.899h39.1006l0.899414 -77.3994zM299.2 311.1c0 -2.2998 -0.600586 -9.09961 -1.7002 -20.3994c-4.5 -26.7002 -7.40039 -44.7998 -8.5 -54.4004h-22.0996l0.899414 11.1006
c-6.7998 -8.5 -16.2002 -12.8008 -28.0996 -12.8008c-7.40039 0 -13.2998 2.7002 -17.9004 8.10059c-4.5 5.39941 -6.7998 12.0996 -6.7998 20c0 26.0996 15.5996 39.0996 46.7998 39.0996c5.10059 0 8.7998 -0.299805 11.1006 -0.899414
c0.599609 2.2998 0.899414 4.5 0.899414 6.7998c0 6.2002 -5.7002 9.39941 -17 9.39941c-4.5 0 -13.8994 -1.39941 -28.0996 -4.2998c0 1.10059 1.09961 8.7998 3.39941 23c13.6006 3.40039 24.4004 5.10059 32.3008 5.10059
c23.1992 -0.100586 34.7998 -10 34.7998 -29.8008zM374.1 339.1l-4.2998 -23.7998c-9.09961 1.10059 -15.2998 1.7002 -18.7002 1.7002c-9.09961 0 -13.5996 -2.7998 -13.5996 -8.5c0 -2.2998 0.700195 -4 2.09961 -5.09961c1.40039 -1.10059 5 -3.10059 10.6006 -6
c12.5 -5.7002 18.7002 -15.3008 18.7002 -28.9004c0 -22.7002 -13.9004 -34 -41.7002 -34c-12.5 0.599609 -21.6006 1.7002 -27.2002 3.40039c0 0.599609 1.09961 8.5 3.40039 23.7998c7.39941 -2.7998 15.2998 -4.2998 23.7998 -4.2998
c10.2002 0 15.2998 3.09961 15.2998 9.39941c0 3.40039 -4 7.10059 -11.9004 11.1006c-13.5996 6.19922 -20.3994 15.5996 -20.3994 28.0996c0 23.2998 13.2998 34.9004 40 34.9004c6.89941 -0.100586 14.7998 -0.600586 23.8994 -1.80078zM415.8 338.3h14.5
l-4.2998 -23.7998h-13.5996c-5.10059 -29.5 -7.7002 -45.0996 -7.7002 -46.7998c0 -5.10059 3.09961 -7.7002 9.39941 -7.7002c3.40039 0 6 0.299805 7.7002 0.900391l-4.2998 -23c-9.09961 -2.30078 -15.2998 -3.40039 -18.7002 -3.40039
c-14.2002 0 -21.2998 7.7002 -21.2998 23c0 3.40039 1.09961 12.5 3.40039 27.2002c1.09961 6.2002 5.09961 29.5 11.8994 69.7998h26.4004zM513.6 304.3c0 -7.89941 -1.09961 -16.3994 -3.39941 -25.5h-53.6006c-1.69922 -13.5996 6.2002 -20.3994 23.8008 -20.3994
c9.59961 0 18.6992 2 27.1992 6l-4.2998 -25.5c-10.2002 -2.80078 -19.2998 -4.30078 -27.2002 -4.30078c-30.5996 0 -45.8994 15.3008 -45.8994 45.9004c0 17.5996 4.5 32 13.5996 43.4004c9.10059 11.2998 20.1006 17 33.2002 17
c10.7998 0 19.5996 -3.40039 26.4004 -10.2002c6.7998 -6.90039 10.1992 -15.7002 10.1992 -26.4004zM580 339.1c-4 -6.19922 -7.40039 -16.1992 -10.2002 -29.7998c-7.39941 0.600586 -12.5 -3.2998 -15.2998 -11.5s-6.7998 -28.7998 -11.9004 -61.7002h-26.3994
l0.899414 7.7002c6.80078 36.9004 11.3008 68.2998 13.6006 94.4004h24.7002c0.599609 -1.7002 0.599609 -4.40039 0 -8.10059c-0.600586 -3.69922 -0.900391 -6.09961 -0.900391 -7.19922c8.5 13.0996 17 18.5 25.5 16.1992zM669.3 358.7l-4.2998 -27.2002
c-8.5 4.5 -16.4004 6.7998 -23.7998 6.7998c-10.2002 0 -18.4004 -4.39941 -24.7002 -13.2002c-6.2998 -8.7998 -9.40039 -20 -9.40039 -33.5996c0 -20.4004 8.2002 -30.5996 24.7002 -30.5996c7.40039 0 15 2 23 6l-4.2998 -28.1006
c-11.2998 -2.7998 -19.2998 -4.2998 -23.7998 -4.2998c-14.2002 0 -25.5 5 -34 14.9004c-8.5 9.89941 -12.7002 23.0996 -12.7002 39.5c0 22.6992 5.7002 41.0996 17 55.2998s25.7998 21.2998 43.4004 21.2998c10.1992 0 19.7998 -2.2998 28.8994 -6.7998zM746.7 311.1
c0 -2.2998 -0.600586 -9.09961 -1.7002 -20.3994c-4.5 -26.7002 -7.40039 -44.7998 -8.5 -54.4004h-22.0996l0.899414 11.1006c-6.7998 -8.5 -16.2002 -12.8008 -28.0996 -12.8008c-7.40039 0 -13.2998 2.7002 -17.9004 8.10059
c-4.59961 5.39941 -6.7998 12.0996 -6.7998 20c0 26.0996 15.5996 39.0996 46.7998 39.0996c5.10059 0 8.7998 -0.299805 11.1006 -0.899414l1.69922 6.7998c0 6.2002 -6 9.39941 -17.8994 9.39941c-4.5 0 -13.9004 -1.39941 -28.1006 -4.2998
c0 1.10059 1.10059 8.7998 3.40039 23c13.5996 3.40039 24.4004 5.10059 32.2998 5.10059c23.2998 -0.100586 34.9004 -10 34.9004 -29.8008zM814.8 339.1c-4 -6.19922 -7.39941 -16.1992 -10.2002 -29.7998c-7.39941 0.600586 -12.5 -3.2998 -15.2998 -11.5
s-6.7998 -28.7998 -11.8994 -61.7002h-27.2002l1.7002 7.7002c5.09961 26.1006 9.59961 57.6006 13.5996 94.4004h24.7002c0.599609 -1.7002 0 -6.7998 -1.7002 -15.2998c9 12.5 17.7998 17.8994 26.2998 16.1992zM882 362.1h26.4004l-20.4004 -125.899h-25.5
l1.7002 10.2002c-7.40039 -7.90039 -15.6006 -11.9004 -24.7002 -11.9004c-9.59961 0 -17.4004 3.7998 -23.4004 11.5s-8.89941 18 -8.89941 31c0 17 4.2998 31.7998 12.7998 44.2002c8.5 12.5 18.7002 18.7002 30.5996 18.7002c10.8008 0 19.3008 -4.80078 25.5 -14.5z
M934.7 300c0 72 -25.4004 133.4 -76.1006 184.2c-50.7998 50.7998 -112.199 76.0996 -184.199 76.0996c-58.4004 0 -110.601 -17.5996 -156.5 -52.7002c40.7998 -37.3994 68.0996 -82.5 81.6992 -135.3h-23.7998c-13.5996 47.1006 -38.7998 87.2998 -75.7002 120.8
c-36.8994 -33.5 -62.0996 -73.6992 -75.6992 -120.8h-23.8008c13.6006 52.7002 40.8008 97.7998 81.7002 135.3c-45.8994 35.2002 -98.0996 52.7002 -156.5 52.7002c-72 0 -133.399 -25.3994 -184.2 -76.0996c-50.8994 -50.7998 -76.2998 -112.2 -76.2998 -184.2
s25.4004 -133.4 76.1006 -184.2c50.7998 -50.7998 112.1 -76.0996 184.199 -76.0996c58.4004 0 110.601 17.5996 156.5 52.7002c-38.5996 35.6992 -64.8994 78 -79.0996 126.8h24.7002c13.5996 -44.2002 37.7002 -81.7002 72.2998 -112.3
c34.5996 30.5996 58.7002 68.0996 72.2998 112.3h24.7002c-14.2002 -48.7998 -40.5 -91 -79.0996 -126.8c45.8994 -35.2002 98.0996 -52.7002 156.5 -52.7002c72 0 133.399 25.3994 184.199 76.0996c50.7002 50.7998 76.1006 112.2 76.1006 184.2zM990 667.5v-735h-980v735
h980z" />
    <glyph glyph-name="uniE01E" unicode="&#xe01e;" 
d="M185.2 342.5c-8.5 -5.7002 -19.2998 -8.5 -32.2998 -8.5h-6.80078c-6.7998 0 -9.39941 3.40039 -7.69922 10.2002l7.69922 33.2002c2.30078 6.7998 6.5 10.1992 12.8008 10.1992h7.69922c10.2002 0 17.9004 -1.69922 23 -5.09961
c4.5 -2.7998 6.80078 -7.90039 6.80078 -15.2998c-0.100586 -10.7998 -3.80078 -19 -11.2002 -24.7002zM318.8 275.3c-1.7002 -1.7002 -4.7998 -3.7002 -9.39941 -6c-5.10059 -1.7002 -9.60059 -2.59961 -13.6006 -2.59961c-6.7998 0 -11.5996 0.899414 -14.5 2.59961
c-3.39941 2.2998 -5.09961 5.7002 -5.09961 10.2002c0 5.7002 1.09961 9.59961 3.39941 11.9004c2.80078 3.39941 6.5 6 11.1006 7.69922c5.09961 2.30078 10.7998 3.7002 17 4.30078c7.89941 1.09961 14.2002 1.69922 18.7002 1.69922
c1.09961 0 1.69922 -0.299805 1.69922 -0.899414v-2.60059c0 -2.2998 -1.69922 -9.39941 -5.09961 -21.2998c0.0996094 -3.2998 -1.40039 -5 -4.2002 -5zM652.3 342.5c-7.39941 -5.7002 -18.0996 -8.5 -32.2998 -8.5h-6.7998c-6.2002 0 -8.7998 3.09961 -7.7002 9.40039
l7.7002 33.1992c1.7002 6.80078 6 10.2002 12.7998 10.2002h8.5c9.59961 0 17 -1.7002 22.0996 -5.09961c5.10059 -3.40039 7.7002 -8.5 7.7002 -15.2998c-0.0996094 -10.8008 -4.09961 -18.8008 -12 -23.9004zM786.7 274.5l-10.2002 -5.09961
c-5.09961 -1.7002 -9.59961 -2.60059 -13.5996 -2.60059c-6.2002 0 -11.1006 0.900391 -14.5 2.60059c-3.40039 1.69922 -5.10059 4.7998 -5.10059 9.39941c0 6.2002 1.10059 10.5 3.40039 12.7998c2.2998 2.80078 6 5.40039 11.0996 7.7002
c4 1.10059 9.60059 2.2998 17 3.40039c11.9004 1.7002 18.4004 2.59961 19.6006 2.59961c1.09961 0 1.69922 -1.09961 1.69922 -3.39941c-1.69922 -4 -3.39941 -11.1006 -5.09961 -21.3008c-0.599609 -1.89941 -2 -3.89941 -4.2998 -6.09961zM240.5 394.4
c-3.40039 6.19922 -7.90039 11.2998 -13.5996 15.2998c-6.80078 3.39941 -14.5 6 -23 7.7002c-8.5 1.69922 -18.4004 2.59961 -29.8008 2.59961h-54.3994c-6.7998 0 -10.7998 -3.09961 -11.9004 -9.40039l-36.5 -158.199c-1.09961 -6.2002 1.40039 -9.40039 7.7002 -9.40039
h26.4004c6.7998 0 10.7998 3.09961 11.8994 9.40039l9.40039 38.2998c1.09961 6.7998 5.09961 10.2002 11.8994 10.2002h7.7002c31.2002 0 55.6006 6.19922 73.2002 18.6992c17.5996 13.6006 26.4004 30.9004 26.4004 51.9004c-0.300781 9 -2 16.7002 -5.40039 22.9004z
M364.7 371.5c-9.60059 5.7002 -25 8.5 -45.9004 8.5c-9.59961 0 -20.0996 -0.900391 -31.5 -2.59961c-5.7002 -0.600586 -9.89941 -1.40039 -12.7998 -2.60059c-6.2002 -1.09961 -10.2002 -5.09961 -11.9004 -11.8994l-2.59961 -12.8008
c-1.7002 -2.7998 -1.7998 -4.7998 -0.400391 -6c1.40039 -1.09961 2.30078 -1.69922 2.60059 -1.69922h3c6.7998 2.7998 11.8994 4.5 15.2998 5.09961c10.2002 2.2998 18.0996 3.40039 23.7998 3.40039c8.5 0 16.2002 -1.10059 23 -3.40039
c5.7002 -2.2998 8.5 -6.2002 8.5 -11.9004c0 -1.69922 -0.299805 -2.7998 -0.799805 -3.39941c0 -1.7002 -1.09961 -2.60059 -3.40039 -2.60059c-7.39941 -0.599609 -20.0996 -2 -38.2998 -4.2998c-13 -1.7002 -23.7998 -4.5 -32.2998 -8.5
c-10.2002 -5.09961 -17.5996 -11.0996 -22.0996 -17.8994c-5.10059 -7.40039 -7.7002 -16.4004 -7.7002 -27.2002c0 -10.2002 3.39941 -18.1006 10.2002 -23.7998c6.7998 -6.2002 15.8994 -9.40039 27.1992 -9.40039c8.5 0 13.9004 0.599609 16.2002 1.7002
c5.7002 1.09961 9.90039 2.59961 12.7998 4.2998c3.40039 0.599609 6.80078 2.2998 10.2002 5.09961c4 2.30078 7.40039 4.5 10.2002 6.80078l-0.900391 -4.30078v0c-1.69922 -5.69922 0.600586 -9.09961 6.80078 -10.1992v0h20.3994h3.40039
c6.2002 1.09961 9.89941 4.5 11.0996 10.1992l18.7002 80.8008c0 1.09961 0.299805 2.39941 0.900391 3.7998c0.599609 1.39941 0.899414 2.39941 0.899414 3v6c-0.0996094 12.0996 -4.89941 20.7002 -14.5996 25.7998zM508.5 378.3
c-6.7998 0 -12.2002 -3.39941 -16.2002 -10.2002l-40 -69.7998c-2.7998 -4 -4.2998 -4 -4.2998 0c0 1.10059 -4 24.4004 -11.9004 69.7998c-1.09961 6.80078 -5.69922 10.2002 -13.5996 10.2002l-23 -0.899414c-6.7998 0 -9.59961 -3.10059 -8.5 -9.40039l21.2998 -123.4
c1.10059 -8.5 1.10059 -13.5996 0 -15.2998l-23 -40c-4 -6.2002 -2.59961 -9.39941 4.2998 -9.39941h26.4004c6.7998 0 12.2002 3.09961 16.2002 9.39941l102.899 173.7l0.900391 15.2998h-31.5zM707.6 393.6c-1.69922 5.10059 -6.19922 10.2002 -13.5996 15.3008
c-6.2002 4 -13.9004 6.7998 -23 8.5c-11.2998 1.09961 -21.2998 1.69922 -29.7998 1.69922h-53.6006c-6.19922 0 -10.5 -3.09961 -12.7998 -9.39941l-35.7002 -158.2c-2.2998 -6.2002 0.300781 -9.40039 7.7002 -9.40039h25.5c6.2002 0 10.5 3.10059 12.7998 9.40039
l8.5 38.2998c1.10059 6.7998 5.10059 10.2002 11.9004 10.2002h7.7002c31.2002 0 55.5996 6.5 73.2002 19.5996c17.5996 12.5 26.3994 29.5 26.3994 51c-0.0996094 9.60059 -1.7998 17.3008 -5.2002 23zM831.8 371.5c-9.09961 5.7002 -24.3994 8.5 -45.8994 8.5
c-10.2002 0 -20.4004 -0.900391 -30.6006 -2.59961c-2.7998 -0.600586 -5.5 -1.10059 -8.09961 -1.7002c-2.60059 -0.600586 -4.40039 -0.900391 -5.5 -0.900391c-5.7002 -1.7002 -9.40039 -5.7002 -11.1006 -11.8994l-3.39941 -12.8008
c-0.600586 -2.7998 -0.400391 -4.7998 0.399414 -6c0.900391 -1.09961 1.60059 -1.69922 2.10059 -1.69922h2.59961l15.2998 5.09961c11.3008 2.2998 19.3008 3.40039 23.8008 3.40039c11.8994 -1.10059 19.7998 -2.30078 23.7998 -3.40039
c5.09961 -2.2998 7.7002 -6.2002 7.7002 -11.9004v-3.39941c-1.10059 -1.7002 -2.60059 -2.60059 -4.30078 -2.60059c-8.5 -0.599609 -21 -2 -37.3994 -4.2998c-11.9004 -1.7002 -23 -4.7998 -33.2002 -9.39941c-10.2002 -4.5 -17.5996 -10.2002 -22.0996 -17
c-5.10059 -7.40039 -7.7002 -16.4004 -7.7002 -27.2002c0 -9.60059 3.7002 -17.6006 11.0996 -23.7998c6.2002 -6.2002 15.2998 -9.40039 27.2002 -9.40039c7.90039 0 13.2998 0.299805 16.2002 0.900391c1.09961 0.599609 3.09961 1.2998 6 2.09961
c2.7998 0.900391 4.7998 1.59961 6 2.09961c4.5 2.30078 8.2002 4.30078 11.0996 6c1.10059 0.600586 2.7002 1.60059 4.7002 3c2 1.40039 3.5 2.7002 4.7002 3.80078l-0.900391 -4.30078v0c-1.09961 -5.69922 1.10059 -9.09961 6.7998 -10.1992h0.900391h19.5996h3.40039
h0.900391c5.69922 1.09961 9.39941 4.5 11.0996 10.1992l18.7002 80.8008c0 0.599609 0.0996094 1.59961 0.399414 3c0.300781 1.39941 0.400391 2.69922 0.400391 3.7998v6c-0.299805 12.7002 -5.09961 21.2002 -14.7002 25.7998zM921.1 418.2h-23h-0.899414
c-5.7002 0 -9.60059 -3.10059 -11.9004 -9.40039v-0.799805l-1.7002 -6.7998l-31.5 -142.9l-1.69922 -6c-1.10059 -5.7002 1.39941 -9.09961 7.69922 -10.2002h23.9004c5.7002 0 9.59961 3.10059 11.9004 9.40039v0.900391l34.8994 155.6
c1.10059 6.7998 -1.5 10.2002 -7.7002 10.2002zM990 667.5v-735h-980v735h980z" />
    <glyph glyph-name="uniE01F" unicode="&#xe01f;" 
d="M686.3 297.4c0 -39.7002 -10.2002 -59.5 -30.5996 -59.5c-5.7002 0 -11.2998 1.39941 -17 4.2998v93.5996c7.89941 7.90039 15.8994 11.9004 23.7998 11.9004c15.9004 -0.100586 23.7998 -16.7998 23.7998 -50.2998zM870.1 311.9h-46.7998
c1.7002 27.7998 9.60059 41.6992 23.7998 41.6992c13.6006 0 21.3008 -13.8994 23 -41.6992zM216.7 255.8c0 14.7002 -4.40039 27.1006 -13.2002 37c-8.7998 9.90039 -18.4004 16.4004 -28.9004 19.6006c-10.5 3.09961 -20.0996 6.89941 -28.8994 11.5
c-8.7998 4.5 -13.2002 9.39941 -13.2002 14.5c0 7.39941 5.40039 11.0996 16.2002 11.0996c15.2998 0 32.5996 -4.5 51.8994 -13.5996l7.7002 46.7998c-18.7002 9.09961 -39.7002 13.5996 -63 13.5996c-20.3994 0 -37.3994 -5.2002 -51 -15.7002
c-13.5996 -10.5 -20.5 -26.1992 -20.5 -46.5996c0 -14.7002 4.40039 -26.9004 13.2002 -36.5996c8.7998 -9.60059 18.4004 -16.2002 28.9004 -19.6006c10.5 -3.39941 20.0996 -7.2002 28.8994 -11.5s13.2002 -9.5 13.2002 -15.7002c0 -8.5 -6.5 -12.7998 -19.5996 -12.7998
c-20.4004 0 -40.3008 6 -59.5 17.9004l-7.7002 -47.6006c19.7998 -11.2998 43.3994 -17 70.5996 -17c22.1006 0 40.1006 5.40039 54 16.2002c14 10.7002 20.9004 26.9004 20.9004 48.5zM340.9 345.1l7.69922 46.8008h-40v57l-54.3994 -9.40039l-7.7002 -47.5996
l-18.7002 -2.60059l-7.7002 -44.2002h26.4004v-91c0 -42 21.5996 -63 64.7002 -63c11.2998 0 22.3994 1.7002 33.2002 5.10059v49.2998c-7.90039 -2.2998 -14.2002 -3.40039 -18.7002 -3.40039c-11.2998 0 -17 7.10059 -17 21.3008v81.6992h32.2002zM472.8 334.9v58.6992
c-2.2998 0.600586 -6.2002 0.900391 -11.8994 0.900391c-19.3008 0 -31.8008 -8.5 -37.4004 -25.5l-3.40039 23h-55.2998v-196.6h63v127.6c10.1006 12.4004 25.1006 16.4004 45 11.9004zM488.1 195.4h63v196.5h-63v-196.5zM748.4 299.1c0 64.7002 -21.6006 97 -64.7002 97
c-18.1006 0 -34.6006 -7.89941 -49.2998 -23.7998l-3.40039 19.6006h-55.2998v-269.7l63 10.2002v63.7998c9.59961 -3.40039 19 -5.10059 28.0996 -5.10059c28.9004 0 49.7998 10.3008 62.5 31.1006c12.7002 20.7002 19.1006 46.2998 19.1006 76.8994zM552.7 444.6
c0 9.10059 -3.2998 16.9004 -9.7998 23.4004s-14.3008 9.7998 -23.4004 9.7998s-16.9004 -3.2998 -23.4004 -9.7998s-9.7998 -14.2998 -9.7998 -23.4004c0 -9.09961 3.2998 -16.8994 9.7998 -23.3994s14.3008 -9.7998 23.4004 -9.7998s16.9004 3.2998 23.4004 9.7998
c6.59961 6.5 9.7998 14.2998 9.7998 23.3994zM928.8 294.9c0 29.5 -6.39941 53.6992 -19.0996 72.6992c-12.7998 19 -33.2998 28.5 -61.7002 28.5s-49.7998 -9.7998 -64.2002 -29.2998c-14.5 -19.5996 -21.7002 -44.0996 -21.7002 -73.5996
c0 -68.1006 31.2002 -102.101 93.6006 -102.101c28.3994 0 50.7998 5.7002 67.2002 17l-6.80078 42.5c-16.3994 -8.5 -34.2998 -12.7998 -53.5996 -12.7998c-23.2998 0 -36 11.9004 -38.2998 35.7002h103.8c0.5 4.7002 0.799805 11.7998 0.799805 21.4004zM990 667.5v-735
h-980v735h980z" />
    <glyph glyph-name="uniE020" unicode="&#xe020;" 
d="M844.5 260.9h-57.7998c4 10.1992 13.2998 35.1992 28.0996 74.8994l1.7002 3.40039c0.599609 2.7998 1.7002 6.5 3.40039 11.0996c1.69922 4.5 3.09961 8.2002 4.2998 11.1006l4.2998 -23zM239.7 288.1l-23.7998 123.4c-2.80078 15.2998 -13.3008 23 -31.5 23h-112.301
l-0.899414 -6c86.7998 -22.2002 143 -69 168.5 -140.4zM315.4 433.6l-68.1006 -182.899l-7.7002 37.3994c-7.39941 19.3008 -19.2998 37.3008 -35.6992 54c-16.4004 16.7002 -34.6006 29.1006 -54.4004 37l56.0996 -213.5h74l108.9 268h-73.0996zM373.2 165.6h69.7998
l43.4004 268.801h-69.8008zM694.8 427.6c-19.7998 7.40039 -40.5996 11.1006 -62.0996 11.1006c-34.6006 0 -62.7998 -8.2002 -84.6006 -24.7002c-21.7998 -16.4004 -32.7998 -37.7002 -32.7998 -63.7998c-0.599609 -28.9004 19.6006 -53.2998 60.4004 -73.2002
c14.2002 -6.7998 23.7998 -12.5996 28.8994 -17.4004c5.10059 -4.7998 7.40039 -10.0996 6.80078 -15.6992c0 -8.5 -4.10059 -15 -12.3008 -19.6006c-8.19922 -4.5 -17.6992 -6.7998 -28.5 -6.7998c-23.7998 0 -45.6992 4.5 -65.5 13.5996l-9.39941 4.30078l-9.40039 -59.5
c20.4004 -9.60059 46.2002 -14.5 77.4004 -14.5c36.2998 0 65.4004 8.39941 87.2002 25.0996s33 39 33.5996 66.7998c0 29.5 -19.5996 53.9004 -58.7002 73.2002c-14.2002 6.7998 -24.2002 12.5996 -30.2002 17.4004c-6 4.7998 -8.89941 10.0996 -8.89941 15.6992
c0.599609 6.2002 4.2998 11.6006 11.0996 16.2002c6.7998 4.5 16.4004 6.7998 28.9004 6.7998c21 0 38.2998 -3.39941 51.8994 -10.1992l6.80078 -3.40039zM872.6 433.6h-53.5996c-18.0996 0 -30.2998 -7.39941 -36.5996 -22.0996l-102.9 -246.8h73.2002l14.5 40.7998h88.5
c1.7002 -6.2002 4.5 -19.7998 8.5 -40.7998h64.7002zM990 667.5v-735h-980v735h980z" />
    <glyph glyph-name="uniE021" unicode="&#xe021;" 
d="M989 456.5c0 -0.599609 0.200195 -1 0.5 -1s0.5 -0.299805 0.5 -1v-4.90039v-299.3v-4.89941c0 -0.600586 -0.200195 -1 -0.5 -1s-0.5 -0.300781 -0.5 -1v-3.90039c-0.599609 0 -1 -0.599609 -1 -1.90039c-0.599609 -0.599609 -1 -1.59961 -1 -2.89941
c-0.599609 -0.600586 -1 -1.2998 -1 -1.90039l-1 -1c-0.599609 -0.599609 -1 -1.2998 -1 -1.89941c0 -0.600586 -0.200195 -1 -0.5 -1s-0.5 -0.300781 -0.5 -1l-1 -1c0 -1.30078 -0.299805 -1.90039 -1 -1.90039l-1 -1c-1.2998 -1.2998 -1.90039 -2.2998 -1.90039 -2.90039
c-1.2998 0 -1.89941 -0.599609 -1.89941 -1.89941c-0.600586 0 -1.60059 -0.600586 -2.90039 -1.90039c-0.599609 -0.599609 -1.2998 -1 -1.89941 -1v-1l-448.101 -298.5c-6.5 -4.5 -14.2998 -6.7998 -23.2998 -6.7998c-9.09961 0 -16.9004 2.2998 -23.2998 6.7998
l-448.2 298.5v1l-1.90039 1c-1.2998 1.2998 -2.2998 1.90039 -2.89941 1.90039c0 1.2998 -0.600586 1.89941 -1.90039 1.89941c0 0.600586 -0.599609 1.60059 -1.89941 2.90039l-1 1c-0.600586 0 -1 0.299805 -1 1c0 0.599609 -0.300781 1.2998 -1 1.90039
c0 0.599609 -0.200195 1 -0.5 1c-0.300781 0 -0.5 0.299805 -0.5 1c0 0.599609 -0.300781 1 -1 1l-1 1.89941c0 0.600586 -0.300781 1.2998 -1 1.90039c0 1.2998 -0.300781 2.2998 -1 2.89941c0 1.30078 -0.300781 1.90039 -1 1.90039v3.90039
c0 0.599609 -0.200195 1 -0.5 1c-0.300781 0 -0.5 0.299805 -0.5 1v4.89941v299.4v4.89941c0 0.600586 0.199219 1 0.5 1c0.299805 0 0.5 0.300781 0.5 1v3.90039c0.599609 0 1 0.599609 1 1.90039c0.599609 0.599609 1 1.59961 1 2.89941
c0.599609 0.600586 1 1.2998 1 1.90039l1 1c0.599609 0.599609 1 1.2998 1 1.89941c0 0.600586 0.199219 1 0.5 1c0.299805 0 0.5 0.300781 0.5 1l1 1c0 1.30078 0.299805 1.90039 1 1.90039l1 1c1.2998 1.2998 1.89941 2.2998 1.89941 2.90039
c1.2998 0 1.90039 0.599609 1.90039 1.89941c0.599609 0 1.59961 0.600586 2.89941 1.90039c0.600586 0.599609 1.30078 1 1.90039 1v1l448.2 298.5c15.5996 9.09961 31.0996 9.09961 46.7002 0l448.199 -298.5v-1l1.90039 -1
c1.2998 -1.2998 2.2998 -1.90039 2.90039 -1.90039c0 -1.2998 0.599609 -1.89941 1.89941 -1.89941c0 -0.600586 0.600586 -1.60059 1.90039 -2.90039l1 -1c0.599609 0 1 -0.299805 1 -1c0 -0.599609 0.299805 -1.2998 1 -1.90039c0 -0.599609 0.200195 -1 0.5 -1
s0.5 -0.299805 0.5 -1c0 -0.599609 0.299805 -1 1 -1l1 -1.89941c0 -0.600586 0.299805 -1.2998 1 -1.90039c0 -1.2998 0.299805 -2.2998 1 -2.89941c0 -1.30078 0.299805 -1.90039 1 -1.90039v-4h-0.200195zM500 200.8l148.8 99.2002l-148.8 99.2002l-148.8 -99.2002z
M458.2 473.1v196.4l-330.601 -219.8l147.801 -99.2002zM199.6 300l-105 70v-140zM275.4 249.4l-147.801 -99.2002l330.601 -219.7v196.4zM541.8 126.9v-196.301l330.601 219.7l-147.801 99.2002zM800.4 300l105 -70v140zM724.6 350.6l147.801 99.2002l-330.601 219.601
v-196.301z" />
    <glyph glyph-name="uniE022" unicode="&#xe022;" 
d="M888.4 421.5c20.0996 0 35.7998 -5.2998 47.1992 -16c11.3008 -10.7002 17 -26.0996 17 -46.2002c0 -40.2002 -23.2998 -60.2998 -70 -60.2998h-74.8994v-98.2002h-13.6006v220.7h94.3008zM939 360.3c0 15.6006 -4.7002 27.7002 -14.0996 36.5
c-9.40039 8.7998 -21.9004 13.1006 -37.4004 13.1006h-79.7002v-99.2002h77.7998c15.6006 0 28.4004 4.39941 38.4004 13.0996c9.90039 8.7998 15 20.9004 15 36.5zM532.6 -10.0996c55.1006 0 106.601 13.8994 154.601 41.7998c48 27.8994 85.8994 65.7998 113.8 113.8
l156.4 -90.5c-44.1006 -75.7998 -104 -135.6 -179.9 -179.4c-75.7998 -43.6992 -157.4 -65.5996 -244.9 -65.5996c-134.8 0 -250.199 48 -346.1 143.9c-96 95.8994 -143.9 211.3 -143.9 346.1s48 250.2 143.9 346.1c95.9004 95.9004 211.3 143.9 346.1 143.9
c87.5 0 169.2 -21.9004 245 -65.5996c75.8008 -43.8008 135.801 -103.5 179.9 -179.4l-424.9 -245l255.7 -147.8c-26.5996 -46 -62.5 -82.2002 -107.899 -108.4c-45.4004 -26.2002 -94.6006 -39.3994 -147.801 -39.3994c-81 0 -150.5 29 -208.5 87
s-87.0996 127.6 -87.0996 208.6s29 150.5 87 208.5s127.5 87 208.5 87c84.9004 0 157.2 -31.7998 216.8 -95.2998h19.4004c-29.7998 35 -65.2998 62.0996 -106.5 81.2002c-41.2002 19.0996 -84.4004 28.6992 -129.8 28.6992c-85.6006 0 -158.601 -30.2998 -219.2 -90.8994
c-60.6006 -60.6006 -90.9004 -133.7 -90.9004 -219.2s30.2998 -158.6 90.9004 -219.2c60.7002 -60.5996 133.8 -90.8994 219.399 -90.8994z" />
    <glyph glyph-name="uniE023" unicode="&#xe023;" 
d="M990 300.9c0 -15.3008 -7.40039 -24.4004 -22.0996 -27.2002l-97.8008 -170.101c1.10059 -3.39941 1.7002 -6.19922 1.7002 -8.5c0 -14.6992 -7.39941 -23.5 -22.0996 -26.3994l-91.9004 -161.7c0.600586 -1.7002 0.900391 -4.2998 0.900391 -7.7002
c0 -7.39941 -2.7002 -13.7998 -8.10059 -19.0996c-5.39941 -5.40039 -11.7998 -8.10059 -19.0996 -8.10059c-7.40039 0 -13.9004 2.80078 -19.5996 8.5h-191.5c-6.2002 -6.19922 -13 -9.39941 -20.4004 -9.39941s-14.2002 3.09961 -20.4004 9.39941h-190.6
c-6.2002 -6.19922 -13.2998 -9.39941 -21.2998 -9.39941c-7.40039 0 -13.7998 2.7002 -19.1006 8.09961c-5.39941 5.40039 -8.09961 11.7998 -8.09961 19.1006c0 3.39941 0.900391 6.5 2.59961 9.39941l-92.6992 160.8c-6.2002 1.10059 -11.5 4.10059 -15.7002 8.90039
c-4.2998 4.7998 -6.40039 10.5996 -6.40039 17.4004c0 2.2998 0.600586 5.09961 1.7002 8.5l-98.7002 170.199c-6.2002 1.10059 -11.2998 4.30078 -15.2998 9.40039s-6 11.0996 -6 17.9004c0 6.19922 2.2998 11.8994 6.7998 17c4.5 5.09961 9.90039 8.19922 16.2002 9.39941
l94.4004 164.2v3.40039c0 11.2998 5.39941 19.5996 16.1992 24.6992l99.5 173.4c-0.599609 1.7002 -0.899414 4.5 -0.899414 8.5c0 7.40039 2.59961 13.7998 7.7002 19.0996c5.09961 5.40039 11.2998 8.10059 18.6992 8.10059c8.5 0 15.6006 -3.40039 21.3008 -10.2002
h189.699c5.10059 6.7998 11.9004 10.2002 20.4004 10.2002s15.2998 -3.40039 20.4004 -10.2002h190.6c5.7002 6.7998 12.7998 10.2002 21.2998 10.2002c7.40039 0 13.7998 -2.7002 19.1006 -8.10059c5.39941 -5.39941 8.09961 -11.7998 8.09961 -19.0996
c0 -2.2998 -0.599609 -5.09961 -1.7002 -8.5l98.7002 -171.8c7.40039 0 13.5996 -2.60059 18.7002 -7.7002c5.09961 -5.09961 7.7002 -11.2998 7.7002 -18.7002c0 -4 -1.10059 -8.2002 -3.40039 -12.7998l89.2998 -154.8
c14.1006 -3.90039 21.2002 -12.7002 21.2002 -26.2998zM518.7 -82h185.5l-163.4 169.3h-68.0996l-164.101 -169.3h172.7c6.2002 5.09961 12.5 7.7002 18.7002 7.7002s12.5 -2.60059 18.7002 -7.7002zM63.5996 306.8c0 -0.599609 0.100586 -1.59961 0.400391 -3
c0.299805 -1.39941 0.400391 -2.39941 0.400391 -3c0 -1.09961 -0.100586 -2.59961 -0.400391 -4.2998s-0.400391 -2.7998 -0.400391 -3.40039l98.7002 -171.8c3.40039 -1.09961 6 -2.2998 7.7002 -3.39941l90.2002 95.2998v165.899l-90.2002 93.6006
c-3.40039 -3.40039 -7.90039 -5.10059 -13.5996 -5.10059zM481.3 682h-184.6l90.2002 -96.0996l265.399 96.0996h-133.6c-5.10059 -5.09961 -11.2998 -7.7002 -18.7002 -7.7002s-13.5996 2.60059 -18.7002 7.7002zM818.2 101.8c0 0.600586 0.299805 1.60059 0.899414 3
c0.600586 1.40039 1.10059 2.40039 1.7002 3l-30.5996 32.2998l-8.5 -38.2998h36.5zM767.1 101.8l11.1006 50.2002l-120.8 127.6l-141.2 -147.199l29.7998 -30.6006h221.1zM725.4 -74.2998l7.69922 13.5996l31.5 148h-205l159.9 -164.2
c0.5 0.600586 2.5 1.5 5.90039 2.60059zM286.5 -82h2.59961l163.301 169.3h-177.801v-159.899l1.7002 -3.40039c3.40039 -0.599609 6.7998 -2.59961 10.2002 -6zM274.6 101.8h192.301l29.7998 31.5l-147.2 154l-74.9004 -80v-105.5zM181.8 101.8h78.2998v90.2002
l-80.7998 -84.2002c0.600586 -0.599609 1.10059 -1.59961 1.7002 -3c0.599609 -1.5 0.799805 -2.39941 0.799805 -3zM181 496.5c0.599609 -0.599609 0.900391 -1.09961 0.900391 -1.7002c0 -5.09961 -1.40039 -9.59961 -4.30078 -13.5996l82.5 -85.1006v128.5zM274.6 530.5
v-148.8l73.2002 -75.7002l142.101 150.6l-107.301 113.101zM276.3 675.2l-1.7002 -3.40039v-126.8l97.8008 35.7002l-91.9004 96.0996c-0.5 0.100586 -2 -0.5 -4.2002 -1.59961zM702.5 682h-7.7002l-296.899 -107.2l101.199 -108zM500 446.3l-142.1 -150.6l148 -153.101
l142.1 147.2zM339.2 297.4l-64.7002 67.1992v-136.1zM506.8 123.1l-20.3994 -21.2998h40.7998zM667.6 289.8l114 -120.8l63 299.4l-1.69922 1.69922v0.900391zM831.8 480.3c-2.2998 5.7002 -3.39941 10.5 -3.39941 14.5v0.900391l-103.801 179.5
c-0.599609 0.599609 -1.59961 1.09961 -3 1.7002c-1.39941 0.599609 -2.39941 0.899414 -3 0.899414l-209.199 -221.3l148 -156.5zM260.1 539.9v107.199l-78.2998 -135.3zM260.1 87.2998h-78.2998l78.2998 -135.3v135.3zM779 87.2998l-23 -108.899l62.0996 108.899h-39.0996
zM837.7 121.4l98.7002 172.6c0 0.599609 -0.100586 1.59961 -0.400391 3s-0.400391 2.7002 -0.400391 3.7998c0 2.2998 0.600586 4.5 1.7002 6.7998l-82.5 142.101l-61.2998 -292.601l36.5996 -39.0996c1.7002 1.09961 4.2002 2.2002 7.60059 3.40039z" />
    <glyph glyph-name="uniE024" unicode="&#xe024;" 
d="M990 743.3l-146.8 -738.899l-446.3 -147.7l-386.9 147.7l38.9004 197.399h164.3l-15.6006 -81.7002l234.301 -88.5l269.3 88.5l37.8994 187.601h-669.8l32.1006 165.3h669.899l21.4004 106h-669.9l33.1006 164.3h834.1z" />
    <glyph glyph-name="uniE025" unicode="&#xe025;" 
d="M286.1 593.6h406.4l192.5 196.4v-804c0 -48.5996 -16.7002 -90.0996 -50.0996 -124.4c-33.4004 -34.2998 -73.7002 -51.5996 -121 -51.5996h-427.801c-47.2998 0 -87.6992 17.2002 -121 51.5c-33.3994 34.4004 -50.0996 75.9004 -50.0996 124.5v432.6
c0 48 16.7002 89.1006 50.0996 123.5c33.3008 34.3008 73.7002 51.5 121 51.5zM788.8 6.40039l-96.2998 97.1992v233.301c0 16.8994 -5.7998 31.2998 -17.5 43.2998s-25.9004 18 -42.7998 18h-264.4c-16.8994 0 -31.0996 -6 -42.7998 -18s-17.5 -26.4004 -17.5 -43.2998
v-269.301c0 -16.8994 5.7998 -31.2998 17.5 -43.2998s25.9004 -18 42.7998 -18h421v0.100586z" />
    <glyph glyph-name="uniE026" unicode="&#xe026;" 
d="M500 300v-490h-490v490h490zM990 790v-490h-490v490h490z" />
    <glyph glyph-name="uniE027" unicode="&#xe027;" 
d="M801.4 250.4v-244h-298.5l-26.2002 -18.5l-83.6006 -160.4l-17.5 -17.5h-177v177.9l178.9 343.199l-14.5996 18.5h-164.301v244h298.5l26.3008 18.5l83.5996 160.4l17.5 17.5h176.9v-177.9l-178.9 -343.199l14.5996 -18.5h164.301z" />
    <glyph glyph-name="uniE028" unicode="&#xe028;" 
d="M166.5 594.3h98.7002v-470.399h-255.2v332.6h156.5v137.8zM166.5 202.2v176.1h-58.7002v-176.1h58.7002zM304.3 456.5h97.7998v-332.6h-97.7998v332.6zM304.3 594.3h97.7998v-98.7002h-97.7998v98.7002zM441.3 456.5h254.4v-450.8h-254.4v79.0996h156.5v39.1006h-156.5
v332.6zM597.8 202.2v176.1h-58.7002v-176.1h58.7002zM734.8 456.5h255.2v-450.8h-255.2v79.0996h157.4v39.1006h-157.4v332.6zM892.2 202.2v176.1h-58.7002v-176.1h58.7002z" />
    <glyph glyph-name="uniE029" unicode="&#xe029;" 
d="M500 790c134.8 0 250.2 -48 346.1 -143.9c95.9004 -95.8994 143.9 -211.3 143.9 -346.1s-48 -250.2 -143.9 -346.1c-95.8994 -95.9004 -211.3 -143.9 -346.1 -143.9s-250.2 48 -346.1 143.9c-95.9004 95.8994 -143.9 211.3 -143.9 346.1s48 250.2 143.9 346.1
c95.8994 95.9004 211.3 143.9 346.1 143.9zM918.1 303.9c-1.2998 99.7998 -33.0996 187 -95.2998 261.5l-1 -1c-35 -47.3008 -87.7998 -90.4004 -158.5 -129.301c-23.2998 -13 -47.5996 -24.5996 -72.8994 -35c6.5 -13 15.5996 -33.0996 27.1992 -60.2998
c2.60059 -7.7998 5.80078 -15.2002 9.7002 -22.3994c42.1006 7.09961 88.1006 8.7998 138.101 4.89941c49.8994 -3.89941 85.6992 -7.5 107.399 -10.7002c21.7998 -3.19922 36.7998 -5.7998 45.2998 -7.69922zM776.1 614c-78.3994 69.4004 -170.5 104 -276.1 104
c-34.4004 0 -67.0996 -3.90039 -98.2002 -11.7002c56.4004 -75.2002 108.2 -156.5 155.601 -244c47.2998 17.5 89.2998 39.4004 125.899 65.6006c36.6006 26.2998 60.6006 45.8994 71.9004 58.7998c11.3994 13.0996 18.2998 22.0996 20.8994 27.2998zM399.9 706.4h-1h1z
M321.1 678.2c-58.2998 -27.2002 -107.899 -66.6006 -148.699 -118.101c-40.8008 -51.5 -68.1006 -109.399 -81.7002 -173.5c130.3 0 258.899 16.9004 386 50.6006c-48.6006 86.7002 -100.5 167.1 -155.601 241zM81.9004 300c0 -106.9 35.5996 -200.3 106.899 -280v1
c21.4004 38.2002 47.6006 73.7002 78.7998 106.5c31.1006 32.7002 61.4004 59 90.9004 78.7998s57.4004 36.9004 83.5996 51.5c26.2002 14.6006 47.5 24.7998 63.7002 30.6006l23.2998 8.69922c1.90039 0.600586 4.7002 1.5 8.30078 2.40039
c3.59961 1 6.2998 1.7998 8.2998 2.40039c-11 23.2998 -22.4004 47 -34 71c-64.2002 -18.8008 -132.2 -33.2002 -204.2 -43.3008c-71.9004 -10 -125.6 -15.5996 -160.9 -16.5c-35.2998 -1 -56.8994 -0.799805 -64.6992 0.5v-13.5996zM233.6 -22.7998
c77.1006 -63.5 165.9 -95.2998 266.4 -95.2998c57 0 111.5 11 163.3 33.0996c-16.2002 99.2002 -46 205.1 -89.3994 317.9c-0.600586 -0.600586 -1.60059 -1 -2.90039 -1c-6.5 -2.60059 -15.5996 -6.2002 -27.2002 -10.7002
c-11.7002 -4.5 -33.2002 -14.9004 -64.7002 -31.1006c-31.3994 -16.1992 -60.3994 -33.5 -87 -52c-26.5996 -18.5 -54.3994 -42.8994 -83.5996 -73.3994s-51.2002 -61.9004 -66.0996 -94.2998zM734.3 -47.0996c47.2998 31.7998 86.7002 72.0996 118.101 121
c31.3994 48.8994 51.6992 102.199 60.7998 159.899c-4.5 1.2998 -10.4004 3.10059 -17.5 5.2998c-7.10059 2.30078 -20.1006 5.2002 -38.9004 8.80078c-18.7998 3.59961 -37.7998 6.2998 -56.8994 8.2998c-19.1006 2 -42.1006 2.59961 -69 1.89941
c-26.9004 -0.599609 -53 -2.89941 -78.3008 -6.7998c34.4004 -95.7998 61.6006 -195.3 81.7002 -298.399z" />
    <glyph glyph-name="uniE02A" unicode="&#xe02a;" 
d="M298.4 755.6l201.6 -168.1l-290.2 -179.9l-199.8 160zM10 248.5l199.8 159.1l290.2 -179l-201.6 -168.199zM500 228.6l290.2 179l199.8 -159.1l-288.4 -188zM990 567.6l-199.8 -160l-290.2 179.9l201.6 168.2zM500.9 192.4l201.6 -168.2l86.7998 57v-63.2998
l-288.399 -173.5l-289.301 173.5v63.2998l86.8008 -57z" />
    <glyph glyph-name="uniE02B" unicode="&#xe02b;" 
d="M465 790c46 -55.7002 80.7002 -91.7002 104 -107.9c16.2002 -11 41 -24.0996 74.4004 -39.3994c33.3994 -15.2002 56.5996 -26.7002 69.5 -34.5c67.3994 -39.5 120.199 -93.7002 158.5 -162.4c38.1992 -68.7002 57.3994 -142.3 57.3994 -220.7
c0 -119.3 -40.7998 -218.3 -122.5 -297c-81.7002 -78.6992 -182.5 -118.1 -302.399 -118.1c-77.1006 0 -148.9 18.5996 -215.4 55.9004c-66.4004 37.2998 -119.3 88.5 -158.5 153.6s-58.7998 136.3 -58.7998 213.4c0 77.0996 20.3994 150 61.2998 218.699
c40.9004 68.7002 95.2998 120.9 163.3 156.5c60.2998 30.5 100.5 54.1006 120.601 71c27.8994 23.4004 44.0996 60.3008 48.5996 110.9zM136.4 432.2c0 -13 8.09961 -19.4004 24.2998 -19.4004c22.7002 0 58.2002 13.7998 106.5 41.2998s92.7002 59.6006 133.2 96.2002
c40.5 36.6006 60.7998 65.6006 60.7998 87c0 6.5 -2.90039 11.2998 -8.7998 14.6006c1.2998 3.19922 6.2998 9.89941 15.0996 19.8994s13.0996 23.2002 13.0996 39.4004c0 11.7002 -3.59961 31.7998 -10.6992 60.2998c-4.5 -25.2998 -10.2002 -45 -17 -59.2998
c-6.80078 -14.2998 -19 -27.9004 -36.5 -40.7998c-20.7002 -15.6006 -47.2002 -32.6006 -79.2002 -51c-32.1006 -18.5 -61.6006 -36.8008 -88.5 -54.9004c-26.9004 -18.0996 -51 -39.9004 -72.4004 -65.0996c-26.5996 -31.9004 -39.8994 -54.6006 -39.8994 -68.2002z
M569 -143.3c26.5996 0 59 4.7002 97.2002 14.0996c38.2002 9.40039 57.3994 22.7998 57.3994 40.2998c0 5.80078 -2.89941 8.80078 -8.7998 8.80078c-1.2998 0 -3.2002 -0.600586 -5.7998 -1.90039c-29.7998 -20.7002 -70.2998 -31.0996 -121.5 -31.0996
c-11 0 -22.5 1 -34.5 2.89941c-12 1.90039 -22.5 4.40039 -31.5996 7.2998c-9.10059 2.90039 -17.3008 5.80078 -24.8008 8.7002c-7.5 2.90039 -13.3994 5.2998 -18 7.2998l-5.7998 2.90039c-5.2002 0 -10 -2.2998 -14.5996 -6.7998l-3.90039 -9.7002
c-0.599609 -13.5996 13.2998 -24.0996 41.7998 -31.5996s52.8008 -11.2002 72.9004 -11.2002zM627.4 21.9004c-13 0 -30.1006 -6 -51.5 -18c-21.4004 -12 -32.1006 -23.8008 -32.1006 -35.5c0 -3.2002 1 -5.80078 2.90039 -7.80078l5.7998 -3.89941
c2.59961 0 12 6.2998 28.2002 19c16.2002 12.5996 34 19 53.5 19c12.2998 0 21.5996 -1.60059 27.7002 -4.90039c6.19922 -3.2002 11.7998 -9.7002 17 -19.3994c5.19922 -7.80078 8.39941 -11.7002 9.69922 -11.7002c2.60059 0 5.5 1.5 8.80078 4.39941
c3.19922 2.90039 4.89941 6 4.89941 9.2002c-0.0996094 33.1006 -25 49.6006 -74.8994 49.6006zM803.3 -22.7998c29.7998 0 53.2998 18 70.5 54s25.7998 70.7998 25.7998 104.5c0 20.7002 -5.19922 39.0996 -15.5996 54.8994
c-10.4004 15.9004 -25.5996 23.8008 -45.7002 23.8008c-14.8994 0 -44.8994 -15.6006 -89.8994 -46.7002c-45 -31.1006 -75.7002 -46.7002 -91.9004 -46.7002c-12.2998 0 -27.9004 5.7002 -46.7002 17s-36.8994 23.7002 -54.3994 36.9004
c-17.5 13.2998 -39.2002 25.5996 -65.1006 36.8994c-25.8994 11.2998 -51.5 17 -76.7998 17c-39.5 0 -75.5 -14.0996 -107.9 -42.2998c-32.3994 -28.2002 -48.5996 -61.7002 -48.5996 -100.6c0 -41.5 11.7002 -70.6006 35 -87.5
c23.2998 -16.9004 56.4004 -25.3008 99.2002 -25.3008c27.2002 0 58.7998 9.60059 94.7998 28.7002c36 19.1006 69.7002 38.2002 101.1 57.4004c31.4004 19.0996 55.3008 28.7002 71.5 28.7002c14.9004 0 40.3008 -18.5 76.3008 -55.4004
c35.8994 -36.7998 58.6992 -55.2998 68.3994 -55.2998z" />
    <glyph glyph-name="uniE02C" unicode="&#xe02c;" 
d="M488.3 -106.4v-35c-76.5 1.90039 -147 21.7002 -211.5 59.3008c-64.5 37.5996 -115.899 87.7998 -154.1 150.699l31.0996 18.5c9.7002 -15.5996 23 -33.6992 39.9004 -54.3994l36 32.0996c53.2002 -61.7002 120.3 -100.2 201.3 -115.8l-9.7002 -47.5996
c25.2002 -4.5 47.6006 -7.10059 67 -7.80078zM160.7 184.3l-44.7002 -15.5c5.2002 -16.2002 13.9004 -36.5996 26.2998 -61.2998l-31.2002 -18.5c-35.5996 66.0996 -53.5 136.4 -53.5 211c0 74.5 17.8008 144.9 53.5 211l31.1006 -18.5
c-9.7002 -17.5 -18.7998 -37.9004 -27.2002 -61.2998l45.7002 -15.6006c-13 -36.8994 -19.4004 -75.5 -19.4004 -115.699c0 -40.2002 6.40039 -78.6006 19.4004 -115.601zM846.1 87.0996l31.1006 -18.5c-38.2002 -62.8994 -89.6006 -113.1 -154.101 -150.699
c-64.5 -37.6006 -135 -57.4004 -211.5 -59.3008v35c19.4004 0.600586 41.8008 3.2002 67.1006 7.80078l-9.7002 47.5996c81 15.5996 148.1 54.0996 201.3 115.7l36 -32.1006c16.7998 20.8008 30.1006 38.9004 39.7998 54.5zM762.5 390.4l-127.4 -43.7002
c5.80078 -14.2998 8.80078 -29.7998 8.80078 -46.7002s-2.90039 -32.4004 -8.80078 -46.7002l127.4 -43.7002c-11.7002 -33.0996 -29.5 -63.7998 -53.5 -92.3994l-101.1 88.5c-21.4004 -24.6006 -48.3008 -39.9004 -80.7002 -45.7002l26.2998 -132.2
c-17.5 -3.89941 -35.2998 -5.7998 -53.5 -5.7998c-18.0996 0 -36 1.90039 -53.5 5.7998l26.2998 132.2c-32.3994 5.7998 -59.2998 21.0996 -80.7002 45.7002l-101.1 -88.5c-24 28.5 -41.7998 59.2998 -53.5 92.3994l127.4 43.7002
c-5.80078 14.2998 -8.80078 29.7998 -8.80078 46.7002s2.90039 32.4004 8.80078 46.7002l-127.4 43.7002c11.7002 33.0996 29.5 63.7998 53.5 92.3994l101.1 -88.5c21.4004 24 48.3008 39.5 80.7002 46.7002l-26.2998 131.3c17.5 3.90039 35.2998 5.7998 53.5 5.7998
c18.0996 0 36 -1.89941 53.5 -5.7998l-26.2998 -131.3c32.3994 -7.09961 59.2998 -22.7002 80.7002 -46.7002l101.1 88.5c24 -28.5 41.7998 -59.2998 53.5 -92.3994zM488.3 741.4v-35c-25.8994 -1.30078 -48.2998 -3.90039 -67.0996 -7.80078l9.7002 -46.6992
c-79.7002 -15.6006 -146.801 -54.1006 -201.2 -115.7l-36 31.0996c-14.9004 -17.5 -27.9004 -35.5996 -38.9004 -54.3994l-32.0996 18.5c38.2002 62.8994 89.5996 113.1 154.1 150.699c64.6006 37.6006 135.101 57.3008 211.5 59.3008zM942.4 300
c0 -74.5 -17.8008 -144.9 -53.5 -211l-31.1006 18.5c12.2998 24.5996 21.1006 45 26.2998 61.2998l-44.6992 15.6006c13 36.8994 19.3994 75.5 19.3994 115.699c0 40.2002 -6.5 78.8008 -19.3994 115.7l45.6992 15.6006c-8.39941 23.2998 -17.5 43.7998 -27.1992 61.2998
l31.0996 18.5c35.5 -66.2998 53.4004 -136.7 53.4004 -211.2zM877.2 531.4l-32.1006 -18.5c-11 18.7998 -24 36.8994 -38.8994 54.3994l-36 -31.0996c-54.4004 61.5996 -121.4 100.2 -201.2 115.7l9.7002 46.6992c-18.7998 3.90039 -41.2002 6.5 -67.1006 7.80078v35
c76.5 -1.90039 147 -21.7002 211.5 -59.3008c64.5 -37.5996 115.9 -87.7998 154.101 -150.699zM965.7 300c0 84.2998 -20.7002 162.2 -62.2002 233.8c-41.5 71.6006 -98 128.2 -169.7 169.7c-71.5996 41.5 -149.5 62.2002 -233.8 62.2002s-162.2 -20.7002 -233.8 -62.2002
c-71.6006 -41.5 -128.2 -98.0996 -169.7 -169.7c-41.5 -71.5996 -62.2002 -149.5 -62.2002 -233.8s20.7002 -162.2 62.2002 -233.8c41.5 -71.6006 98 -128.2 169.7 -169.7c71.5996 -41.5 149.5 -62.2002 233.8 -62.2002s162.2 20.7002 233.8 62.2002
c71.6006 41.5 128.2 98 169.7 169.7s62.2002 149.5 62.2002 233.8zM990 300c0 -134.8 -48 -250.2 -143.9 -346.1c-95.8994 -95.9004 -211.3 -143.9 -346.1 -143.9s-250.2 48 -346.1 143.9c-95.9004 95.8994 -143.9 211.3 -143.9 346.1s48 250.2 143.9 346.1
c95.8994 95.9004 211.3 143.9 346.1 143.9s250.2 -48 346.1 -143.9c95.9004 -95.8994 143.9 -211.3 143.9 -346.1z" />
    <glyph glyph-name="uniE02D" unicode="&#xe02d;" 
d="M935.6 790c14.9004 0 27.7002 -5.2998 38.4004 -16s16 -23.5 16 -38.4004v-871.199c0 -14.9004 -5.2998 -27.7002 -16 -38.4004s-23.5 -16 -38.4004 -16h-248.899v379.2h127.3l18.5 147.8h-145.8v95.2998c0 24 5 42 15.0996 54c10 12 29.2998 18 57.7998 18h77.8008
v132.2c-25.3008 3.90039 -63.2002 5.7998 -113.801 5.7998c-57.6992 0 -103.899 -17 -138.5 -51c-34.6992 -34 -52 -82.2002 -52 -144.399v-110h-127.399v-147.7h127.399v-379.2h-468.699c-14.9004 0 -27.7002 5.2998 -38.4004 16s-16 23.5 -16 38.4004v871.1
c0 14.9004 5.2998 27.7002 16 38.4004c10.7002 10.6992 23.5 16 38.4004 16h871.199v0.0996094z" />
    <glyph glyph-name="uniE02E" unicode="&#xe02e;" 
d="M575.8 -190h-179.8v447.2h-150.7v174h150.7v128.3c0 72.5996 20.4004 129.1 61.2998 169.7c40.7998 40.5 95 60.7998 162.4 60.7998c51.2002 0 96.2002 -2.2998 135.1 -6.7998v-155.601h-92.3994c-33.7002 0 -56.6006 -7.09961 -68.5 -21.3994
c-12 -14.2998 -18 -35.6006 -18 -64.2002v-110.7h172.1l-22.4004 -174h-149.8v-447.3z" />
    <glyph glyph-name="uniE02F" unicode="&#xe02f;" 
d="M290 405c29.2002 0 54 -10.2002 74.4004 -30.5996c20.3994 -20.4004 30.5996 -45.2002 30.5996 -74.4004s-10.2002 -54 -30.5996 -74.4004c-20.4004 -20.3994 -45.2002 -30.5996 -74.4004 -30.5996s-54 10.2002 -74.4004 30.5996
c-20.3994 20.4004 -30.5996 45.2002 -30.5996 74.4004s10.2002 54 30.5996 74.4004c20.4004 20.3994 45.2002 30.5996 74.4004 30.5996zM867.5 790c33.7002 0 62.5 -12 86.5 -36s36 -52.7998 36 -86.5v-735c0 -33.7002 -12 -62.5 -36 -86.5s-52.7998 -36 -86.5 -36h-735
c-33.7002 0 -62.5 12 -86.5 36s-36 52.7998 -36 86.5v735c0 33.7002 12 62.5 36 86.5s52.7998 36 86.5 36h735zM290 125c48 0 89.0996 17.2002 123.5 51.5c34.2998 34.4004 51.5 75.5 51.5 123.5s-17.2002 89.0996 -51.5 123.5c-34.4004 34.2998 -75.5 51.5 -123.5 51.5
s-89.0996 -17.2002 -123.5 -51.5c-34.2998 -34.4004 -51.5 -75.5 -51.5 -123.5s17.2002 -89.0996 51.5 -123.5s75.5 -51.5 123.5 -51.5zM710 125c48 0 89.0996 17.2002 123.5 51.5s51.5 75.5 51.5 123.5s-17.2002 89.0996 -51.5 123.5
c-34.4004 34.2998 -75.5 51.5 -123.5 51.5s-89.0996 -17.2002 -123.5 -51.5c-34.2998 -34.4004 -51.5 -75.5 -51.5 -123.5s17.2002 -89.0996 51.5 -123.5c34.4004 -34.2998 75.5 -51.5 123.5 -51.5z" />
    <glyph glyph-name="uniE030" unicode="&#xe030;" 
d="M232.9 433.6c-36.9004 0 -68.3008 -13 -94.4004 -39.0996s-39.0996 -57.5996 -39.0996 -94.4004c0 -36.8994 13 -68.2998 39.0996 -94.3994c26.0996 -26.1006 57.5996 -39.1006 94.4004 -39.1006c36.2998 0 67.5996 13.2002 94 39.6006
c26.3994 26.3994 39.5996 57.7002 39.5996 94s-13.2002 67.5996 -39.5996 94c-26.4004 26.2002 -57.7002 39.3994 -94 39.3994zM455.8 300c0 -61.7998 -21.7998 -114.4 -65.5 -157.8c-43.7002 -43.4004 -96.0996 -65.1006 -157.399 -65.1006
c-61.8008 0 -114.4 21.7002 -157.801 65.1006c-43.3994 43.3994 -65.0996 96 -65.0996 157.8s21.7002 114.4 65.0996 157.8c43.4004 43.4004 96 65.1006 157.801 65.1006c61.2998 0 113.699 -21.7002 157.399 -65.1006c43.6006 -43.3994 65.5 -96 65.5 -157.8zM990 300
c0 -61.7998 -21.7002 -114.4 -65.0996 -157.8c-43.4004 -43.4004 -96 -65.1006 -157.801 -65.1006c-61.2998 0 -113.699 21.7002 -157.399 65.1006c-43.7002 43.3994 -65.5 96 -65.5 157.8s21.7998 114.4 65.5 157.8c43.7002 43.4004 96.0996 65.1006 157.399 65.1006
c61.8008 0 114.4 -21.7002 157.801 -65.1006c43.3994 -43.3994 65.0996 -96 65.0996 -157.8z" />
    <glyph glyph-name="uniE031" unicode="&#xe031;" 
d="M10 790h980v-980h-980v980zM589.4 580l-7.80078 -18.5l47.6006 -49.5996l-19.2998 -72.9004l15.5996 -15.5996l69 36l68.0996 -36.9004l15.6006 15.5996l-19.6006 71.9004l47.6006 51.5l-7.7998 18.5h-60.3008l-34 70h-20.3994l-34 -70h-60.2998zM418.3 481.8
c14.2998 0 24 -3.39941 29.2002 -10.2002c5.2002 -6.7998 7.5 -20.2998 6.7998 -40.2998l111.8 13.6006c0 44.6992 -12.7998 75.1992 -38.3994 91.3994c-25.6006 16.2002 -60.1006 24.2998 -103.5 24.2998c-56.4004 0 -98.7002 -12.2998 -126.9 -36.8994
c-28.2002 -24.7002 -42.2998 -63.6006 -42.2998 -116.8v-36.9004h-70v-87.5h57.4004c8.39941 0 12.5996 -2.59961 12.5996 -7.7998v-244c0 -10.4004 -6.2002 -16.2002 -18.5 -17.5l-51.5 -4.90039v-58.2998h297.5v58.2998l-96.2002 8.7998
c-2.59961 0 -4.39941 0.200195 -5.2998 0.5c-1 0.300781 -1.7998 1 -2.40039 1.90039c-0.599609 1 -1 1.7998 -1 2.40039v4.39941v6.2998v249.9h121.4l24.2998 87.5h-146.8l1 1v50.5996c0 15.6006 0.599609 26.9004 1.90039 34c1.2998 7.10059 4.89941 13.3008 10.6992 18.5
c5.90039 5.10059 15.3008 7.7002 28.2002 7.7002zM815 -50v58.2998l-39.9004 4.90039c-5.7998 0.599609 -9.39941 1.89941 -10.6992 3.89941c-1.30078 1.90039 -1.90039 6.2002 -1.90039 12.6006v340.3h-172.1l-16.5 -69l53.5 -18.5
c8.39941 -3.2002 12.5996 -8.7998 12.5996 -16.5v-236.3c0 -5.7998 -0.599609 -9.90039 -1.90039 -12.2002c-1.2998 -2.2998 -4.89941 -3.7002 -10.6992 -4.40039l-39.9004 -4.89941v-58.2002h227.5z" />
    <glyph glyph-name="uniE032" unicode="&#xe032;" 
d="M937.5 -109.3v-80.7002h-315v80.7002l54.4004 8.7998c7.7998 0.599609 12.2998 2.2998 13.5996 4.90039c1.2998 2.59961 1.90039 8.39941 1.90039 17.5v330.6c0 13 -5.5 20.7002 -16.5 23.2998l-72.9004 30.1006l23.2998 99.1992h241.101v-483.3v-4.89941
c0 -7.10059 0.599609 -11.7002 1.89941 -13.6006c1.2998 -1.89941 5.7998 -3.2002 13.6006 -3.89941zM384.3 554.7c-25.8994 0 -42.2998 -6.2998 -49.0996 -19c-6.7998 -12.6006 -10.2002 -34.5 -10.2002 -65.6006v-71v-1.89941l-2.90039 3.89941
c0 2.60059 1.60059 3.90039 4.90039 3.90039h206.1l-34 -122.5h-174.1v-356.8c0 -9.10059 1 -14.9004 2.90039 -17.5c1.89941 -2.60059 6.7998 -4.2002 14.5996 -4.90039l140 -12.5996v-80.7002h-420v82.5996l66.0996 6.80078
c14.3008 0.599609 21.4004 8.39941 21.4004 23.2998v341.3c0 12.2998 -3.59961 18.5 -10.7002 18.5h-76.7998v122.5h87.5v44.7002c0 74.5 20.0996 129 60.2998 163.3c40.2002 34.4004 100.101 51.5 179.9 51.5c28.5 0 53.7998 -2.09961 75.7998 -6.2998
s42.9004 -11.7998 62.7002 -22.7998s35 -27.7002 45.7002 -50.1006c10.6992 -22.3994 16 -49.7002 16 -82.2002l-155.601 -19.3994c0.600586 27.8994 -2.7998 46.7002 -10.2002 56.3994c-7.39941 9.80078 -20.7998 14.6006 -40.2998 14.6006zM613.8 662.6l11.7002 22.4004
h84.5l47.5996 105h28.2002l47.6006 -105h84.5996l10.7002 -22.4004l-67.1006 -70l28.2002 -99.1992l-22.3994 -22.4004l-96.2002 51.5l-95.2002 -50.4004l-22.4004 23.3008l28.2002 101.1z" />
    <glyph glyph-name="uniE033" unicode="&#xe033;" 
d="M606.1 778c-134.8 -51.7998 -253 -129.3 -354.8 -232.3c-101.7 -103 -177.899 -222.601 -228.399 -358.7c-18.8008 81.7002 -17 163.3 5.2998 245c22.3994 81.5996 64 152.9 124.899 213.8c60.3008 60.9004 130.601 102.7 210.9 125.4
c80.4004 22.7002 161.1 24.8994 242.1 6.7998zM843.2 645.8c13.5996 -12.2998 26.5996 -26.8994 38.8994 -43.7002c-165.199 -48 -308.399 -133.3 -429.6 -256.1s-205.7 -267.5 -253.7 -434c-17.5 14.2998 -32.7002 27.9004 -45.7002 40.7998
c-17.5 17.5 -35.2998 38.6006 -53.5 63.2002c47.4004 164.6 131.301 307.8 251.801 429.6c120.5 121.801 262.399 207 425.699 255.601c24 -16.2002 46 -34.7002 66.1006 -55.4004zM309.6 -153.2c49.9004 152.3 130.9 285.101 243 398.5
c112.101 113.4 243.601 195.4 394.601 245.9c17.5 -39.5 29.2002 -81 35 -124.4c-125.101 -51.2002 -235.101 -124.7 -330 -220.6c-94.9004 -95.9004 -167.601 -206.7 -218.2 -332.4c-40.7998 4.5 -82.2998 15.5 -124.4 33zM990 -190.1
c-48.5996 13 -99.0996 27.5 -151.6 43.6992c-36.3008 13 -63.8008 22.7002 -82.6006 29.2002c-56.3994 -35.5996 -117.899 -58.2998 -184.7 -68c46.7002 87.5 105 166.5 175 237.2s148.4 129.6 235.2 176.9c-8.39941 -62.9004 -30.0996 -123.801 -65.0996 -182.7
c14.2998 -37.6006 24.2998 -65.4004 30.0996 -83.6006c12.9004 -40.2998 27.5 -91.0996 43.7002 -152.699z" />
    <glyph glyph-name="uniE034" unicode="&#xe034;" 
d="M764.5 790c71.2998 0 97.7998 -41.5 79.7002 -124.4c-5.2002 -25.8994 -15.4004 -78.0996 -30.6006 -156.5c-15.1992 -78.3994 -28.7998 -147.699 -40.7998 -208c-12 -60.2998 -19 -94 -20.8994 -101.1c-2.60059 -10.4004 -5 -18.5 -7.30078 -24.2998
c-2.2998 -5.7998 -6.2998 -13.6006 -12.1992 -23.2998c-5.90039 -9.7002 -14.3008 -16.8008 -25.3008 -21.4004c-11 -4.5 -24.2998 -6.7998 -39.8994 -6.7998h-159.3c-5.2002 0 -9.40039 -1.90039 -12.6006 -5.7998c-2.59961 -3.90039 -85.8994 -100.801 -249.8 -290.601
c-8.40039 -9.7002 -19.9004 -15.3994 -34.5 -17c-14.5996 -1.59961 -24.0996 -0.5 -28.7002 3.40039c-21.3994 9.09961 -32.0996 28.2002 -32.0996 57.2998v830.1c0 21.4004 7.5 41.5 22.3994 60.3008c14.9004 18.7998 38.6006 28.1992 71 28.1992h520.9v-0.0996094z
M751.9 200c1.89941 7.09961 8.89941 40.7998 20.8994 101.1c12 60.3008 25.6006 129.601 40.7998 208c15.2002 78.4004 25.4004 130.601 30.6006 156.5zM733.4 648.1c1.89941 9.10059 0.199219 17 -5.30078 23.8008c-5.5 6.7998 -12.5 10.1992 -20.8994 10.1992h-418
c-9.10059 0 -16.5 -3.39941 -22.4004 -10.1992c-5.7998 -6.80078 -8.7002 -14.1006 -8.7002 -21.9004v-647.3c0 -2.60059 1 -2.90039 2.90039 -1l171.1 207c8.40039 10.3994 15.7002 17 21.9004 19.8994c6.2002 2.90039 15.7002 4.40039 28.7002 4.40039h140.899
c8.40039 0 15.4004 2.90039 20.9004 8.7002s8.90039 11.7002 10.2002 17.5c0.599609 1.89941 4.2002 19.3994 10.7002 52.5c6.5 33 10.3994 52.7998 11.6992 59.2998c1.30078 8.40039 -1.09961 16.4004 -7.2998 23.7998c-6.2002 7.5 -13.0996 11.2002 -20.8994 11.2002h-173
c-11 0 -20.3008 3.7002 -27.7002 11.2002c-7.5 7.5 -11.2002 17 -11.2002 28.7002v24.2998c0 11.7002 3.7002 21.0996 11.2002 28.2002c7.5 7.09961 16.7002 10.6992 27.7002 10.6992h203.1c7.09961 0 14.0996 2.60059 20.9004 7.80078
c6.7998 5.19922 10.8994 11 12.1992 17.5z" />
    <glyph glyph-name="uniE035" unicode="&#xe035;" 
d="M846.1 546.9h93.3008v-104c-5.80078 0 -13.9004 0.299805 -24.3008 1c-10.3994 0.599609 -18.0996 1 -23.2998 1h-45.7002v-199.301c0 -48 15.6006 -71.8994 46.7002 -71.8994c23.2998 0 43.4004 6.2002 60.2998 18.5v-108
c-26.5996 -14.2998 -58.2998 -21.4004 -95.2998 -21.4004c-27.8994 0 -51 5 -69.5 15.1006c-18.5 10 -31.8994 24.5996 -40.2998 43.7998c-8.40039 19.0996 -14.0996 38.5996 -17 58.2998c-2.90039 19.7998 -4.40039 43.2998 -4.40039 70.5v192.5
c-11 2.59961 -28.1992 2.59961 -51.5 0v104h52.5c0 48 -1 77.7998 -2.89941 89.4004h124.3c-1.90039 -11.7002 -2.90039 -41.5 -2.90039 -89.5zM623.5 70.5996h-120.6c1.2998 16.2002 1.89941 40.5 1.89941 72.9004v333.5c0 31.0996 -0.599609 54.4004 -1.89941 70h120.6
c-1.2998 -14.9004 -1.90039 -37.5996 -1.90039 -68.0996v-328.601c-0.0996094 -35.7002 0.600586 -62.2002 1.90039 -79.7002zM564.2 630.6c-21.4004 0 -39.4004 7.80078 -54 23.3008c-14.6006 15.5996 -21.9004 34 -21.9004 55.3994c0 22 7.2998 41 21.9004 56.9004
c14.5996 15.8994 32.5996 23.7998 54 23.7998c20.7002 0 38.2002 -8.09961 52.5 -24.2998s21.3994 -35 21.3994 -56.4004c0 -20.7002 -7.09961 -39.0996 -21.3994 -54.8994c-14.2998 -15.9004 -31.7998 -23.8008 -52.5 -23.8008zM170.4 373.9
c0 -49.3008 22.3994 -73.9004 67.0996 -73.9004c44.0996 0 66.0996 25 66.0996 74.9004c0 22 -5.69922 40.6992 -17 55.8994c-11.2998 15.2002 -27.6992 22.7998 -49.0996 22.7998c-44.7002 0 -67.0996 -26.5996 -67.0996 -79.6992zM335.7 -37.4004
c0 36.3008 -30.1006 54.4004 -90.4004 54.4004c-57.7002 0 -86.5 -19.0996 -86.5 -57.4004c0 -36.8994 31.4004 -55.3994 94.2998 -55.3994c55 0.0996094 82.6006 19.5996 82.6006 58.3994zM330.8 526.5c35.6006 0 75.5 8.40039 119.601 25.2998v-109.899
c-2.60059 -1.30078 -16.9004 -5.5 -42.8008 -12.6006c5.2002 -15.5996 7.80078 -30.7998 7.80078 -45.7002c0 -46.6992 -13.3008 -86.1992 -39.9004 -118.6s-62.5 -52.7998 -107.9 -61.2998c-28.5 -5.2002 -42.7998 -20.7002 -42.7998 -46.7002
c0 -14.9004 7.60059 -26.5996 22.7998 -35c15.2002 -8.40039 33.5 -15.2002 54.9004 -20.4004c21.4004 -5.19922 42.9004 -11.5 64.7002 -19c21.7002 -7.5 40.2002 -19.8994 55.3994 -37.3994c15.2002 -17.5 22.8008 -40.5 22.8008 -69
c0.199219 -110.8 -66 -166.2 -198.2 -166.2c-55.1006 0 -102.2 11.2002 -141.4 33.5c-39.2002 22.4004 -58.7998 59.0996 -58.7998 110.3c0 59.6006 33.4004 100.8 100.1 123.5v1.90039c-24.5996 14.8994 -36.8994 37.5996 -36.8994 68.0996
c0 40.2002 11.2998 65.5 34 75.7998v1.90039c-25.9004 9.09961 -47.5 28.7998 -64.7002 59.2998s-25.7998 60.6006 -25.7998 90.4004c0 50.5996 17.2998 92.7002 52 126.399c34.7002 33.7002 77.2998 50.6006 127.8 50.6006
c35.0996 0.0996094 67.5 -8.2998 97.2998 -25.2002z" />
    <glyph glyph-name="uniE036" unicode="&#xe036;" 
d="M500 777.8c134.8 0 250.2 -48 346.1 -143.899c95.9004 -95.9004 143.9 -211.301 143.9 -346.101c0 -106.899 -31.0996 -202.899 -93.2998 -287.8c-62.2998 -84.9004 -142.601 -143.9 -241.101 -176.9c-11.6992 -1.89941 -20.2998 -0.5 -25.7998 4.40039
s-8.2998 11.2002 -8.2998 19c0 1.2998 0.200195 17.5 0.5 48.5996c0.299805 31.1006 0.5 59.6006 0.5 85.6006c0 40.7998 -11.2998 71.2998 -34 91.3994c24.5996 2.60059 46.7002 6.30078 66.0996 11.2002c19.4004 4.90039 39.4004 13.1006 59.8008 24.7998
c20.3994 11.7002 37.3994 25.9004 51 42.8008c13.5996 16.8994 24.7998 39.0996 33.5 66.5996c8.7998 27.5 13.0996 59.5 13.0996 95.7998c0 51.2002 -16.5 95.2998 -49.5996 132.2c15.5996 37.5996 13.8994 80.7002 -4.90039 129.3
c-12.2998 3.90039 -29.7998 1.60059 -52.5 -6.7998s-42.0996 -17.7998 -58.2998 -28.2002l-24.2002 -15.7998c-40.2002 11 -81 16.5 -122.5 16.5s-82.2998 -5.5 -122.5 -16.5c-7.09961 4.5 -16.2002 10.4004 -27.2002 17.5s-28.7002 15.4004 -53 24.7998
c-24.2998 9.40039 -42.5996 12.2002 -54.8994 8.2998c-18.8008 -48.5996 -20.4004 -91.6992 -4.90039 -129.3c-33.7002 -37.5996 -50.5996 -81.7002 -50.5996 -132.2c0 -36.2998 4.39941 -68.1992 13.0996 -95.7998c8.7998 -27.5 19.9004 -49.7002 33.5 -66.5996
c13.5996 -16.9004 30.7998 -31.1006 51.5 -42.7998c20.7002 -11.7002 40.7002 -20.1006 59.7998 -25.3008c19.1006 -5.19922 41 -9.09961 65.6006 -11.6992c-16.2002 -13.6006 -26.6006 -35.3008 -31.1006 -65.1006c-13.5996 -5.7998 -27.2002 -10 -40.7998 -12.5996
c-13.5996 -2.60059 -30.5996 -0.200195 -51 7.2998s-37.4004 22.7998 -51 46.2002c-7.7998 13.5996 -18 24.5996 -30.5996 33.0996c-12.6006 8.5 -23.2002 13.6006 -31.6006 15.6006l-12.5996 1.89941c-9.10059 0 -15.2002 -1 -18.5 -2.89941
c-3.2002 -1.90039 -4.2002 -4.5 -2.90039 -7.80078c1.2998 -3.2998 3.2002 -6.2998 5.7998 -9.19922c2.60059 -2.90039 5.2002 -5.30078 7.80078 -7.30078l4.89941 -2.89941c9.7002 -4.5 19.1006 -12.7998 28.2002 -24.7998s15.5996 -22.8008 19.4004 -32.6006
l6.7998 -14.5996c5.2002 -17.5 14.3994 -31.7998 27.7002 -42.7998c13.2998 -11 27.5 -18.1006 42.7998 -21.4004c15.2002 -3.2002 30 -5 44.2002 -5.2998c14.2998 -0.299805 26.2998 0.5 36 2.39941l13.5996 1.90039c0.599609 -27.2002 1 -55.0996 1 -83.5996
c0 -7.80078 -2.7998 -14.1006 -8.2998 -19c-5.5 -4.90039 -13.7998 -6.30078 -24.7998 -4.40039c-99.2002 32.4004 -179.9 91.2002 -242.101 176.5c-62.2002 85.2002 -93.2998 181.3 -93.2998 288.3c0 134.8 48 250.2 143.9 346.101
c95.8994 95.8994 211.3 143.899 346.1 143.899z" />
    <glyph glyph-name="uniE037" unicode="&#xe037;" 
d="M654 269c21.5996 -1.09961 39.0996 -11.9004 52.7002 -32.2998c13.5996 -20.4004 20.3994 -46.2002 20.3994 -77.4004c0 -30.5996 -7.09961 -56.5996 -21.2998 -77.7998c-14.2002 -21.2998 -31.5 -31.9004 -51.8994 -31.9004c-20.4004 0 -37.6006 10.6006 -51.5 31.9004
c-13.9004 21.2998 -20.8008 47.2002 -20.8008 77.7998c0 30.6006 6.80078 56.2998 20.4004 77c13.7002 20.6006 31 31.6006 52 32.7002zM346 269c21 -1.09961 38.2998 -12.0996 51.9004 -32.7998c13.5996 -20.7002 20.3994 -46.4004 20.3994 -77
c0 -30.6006 -6.89941 -56.6006 -20.7998 -77.7998c-13.9004 -21.3008 -31 -31.9004 -51.5 -31.9004c-21 0 -38.4004 10.5 -52.2998 31.5c-13.9004 21 -20.7998 47.0996 -20.7998 78.2998s6.7998 57 20.3994 77.4004c13.6006 20.3994 31.2002 31.2002 52.7002 32.2998z
M500 -38.0996c117.4 0 203.9 9.59961 259.5 28.8994c69.7998 23.2998 105.5 82.2002 107.2 176.9c1.09961 47.0996 -19.7998 89 -63 125.899c-31.7998 27.2002 -74.9004 39.4004 -129.3 36.6006c-53.9004 -2.7998 -112 -5.40039 -174.4 -7.7002
c-65.2002 2.7998 -123.6 5.40039 -175.2 7.7002c-53.8994 2.7998 -96.7002 -9.40039 -128.5 -36.6006c-43.0996 -36.8994 -64.0996 -78.7998 -63 -125.899c1.7002 -94.7002 37.4004 -153.7 107.2 -176.9c55.5996 -19.2998 142.1 -28.8994 259.5 -28.8994zM910.9 492.7
c53.2998 -58.4004 79.6992 -126.8 79.0996 -205c-1.7002 -153.7 -47.9004 -257.5 -138.7 -311.3c-83.8994 -49.9004 -201.3 -74.9004 -352.2 -74.9004c-150.899 0 -268 25 -351.3 74.9004c-90.2002 53.7998 -136.1 157.6 -137.8 311.3
c-0.599609 78.2998 25.7998 146.6 79.0996 205c-5.69922 12.5 -10.1992 35.3994 -13.5996 68.8994c-4.5 36.9004 3.09961 81.7002 23 134.4c-2.2998 4 14.2002 3.09961 49.2998 -2.59961c34 -4 87.6006 -29.8008 160.8 -77.4004c127.601 29.5 255.2 29.5 382.801 0
c73.1992 47.5996 126.5 73.4004 159.899 77.4004c35.7002 5.09961 52.5 6 50.2002 2.59961c19.7998 -52.7002 27.5 -97.5 23 -134.4c-3.40039 -33.3994 -8 -56.3994 -13.5996 -68.8994z" />
    <glyph glyph-name="uniE038" unicode="&#xe038;" 
d="M500 790c134.8 0 250.2 -48 346.1 -143.9c95.9004 -95.8994 143.9 -211.3 143.9 -346.1s-48 -250.2 -143.9 -346.1c-95.8994 -95.9004 -211.3 -143.9 -346.1 -143.9c-88.7998 0 -170.8 21.9004 -246 65.5996c-75.2002 43.8008 -134.6 103.2 -178.4 178.4
c-43.6992 75.2002 -65.5996 157.2 -65.5996 246s21.9004 170.8 65.5996 246c43.7002 75.2002 103.2 134.7 178.4 178.4c75.2002 43.6992 157.2 65.5996 246 65.5996zM725.6 342.8c7.10059 9.10059 12.5 21.6006 16 37.4004c3.60059 15.8994 2.30078 34 -3.89941 54.3994
c-6.2002 20.4004 -19 37.1006 -38.4004 50.1006c-17.5 11 -35.2998 16.5 -53.5 16.5s-33.8994 -3.7002 -47.2002 -11.2002c-13.2998 -7.5 -24.7998 -17 -34.5 -28.7002c-15.5996 -16.8994 -36 -25.2998 -61.2998 -25.2998s-45.7002 8.40039 -61.2002 25.2998
c-9.69922 11.7002 -21.1992 21.2002 -34.5 28.7002c-13.2998 7.5 -29 11.2002 -47.1992 11.2002c-18.1006 0 -35.6006 -5.5 -52.5 -16.5c-20.1006 -13 -33.2002 -29.7002 -39.4004 -50.1006c-6.2002 -20.3994 -7.5 -38.5996 -3.90039 -54.3994
c3.60059 -15.9004 8.90039 -28.4004 16 -37.4004l222.601 -302.399z" />
    <glyph glyph-name="uniE039" unicode="&#xe039;" 
d="M482.5 595.6c33.0996 0 59.5996 -17.1992 79.7002 -51.5c20.0996 -34.3994 30.0996 -69.6992 30.0996 -106c0 -25.2998 -7.09961 -45.3994 -21.3994 -60.2998c-17.5 -17.5 -37.3008 -26.2998 -59.3008 -26.2998c-33.6992 0 -60.2998 16.5 -79.6992 49.5996
c-19.4004 33.1006 -29.2002 67.4004 -29.2002 103.101c0 27.2002 6.59961 49.2998 19.8994 66.0996c13.4004 16.7998 33.3008 25.2998 59.9004 25.2998zM525.3 216.4c2.60059 0 6.2002 -0.200195 10.7002 -0.5c4.5 -0.300781 7.7998 -0.5 9.7002 -0.5
c1.89941 -1.30078 7.59961 -5.2002 17 -11.7002c9.39941 -6.5 15.7002 -11 19 -13.6006c3.2002 -2.59961 8.7998 -7.09961 16.5 -13.5996c7.7998 -6.5 13.3994 -12 17 -16.5c3.59961 -4.5 7.59961 -10 12.2002 -16.5c4.5 -6.5 7.7998 -13.2998 9.69922 -20.4004
c1.90039 -7.09961 2.90039 -14.2998 2.90039 -21.3994c0 -31.7998 -12.5996 -55.1006 -37.9004 -70c-25.2998 -14.9004 -55.0996 -22.4004 -89.3994 -22.4004c-38.9004 0 -74.2002 8.60059 -106 25.7998c-31.7998 17.2002 -47.6006 43.6006 -47.6006 79.2002
c0 25.2998 9.90039 46 29.7002 62.2002s41.2002 26.9004 64.2002 32.0996c22.9004 5.2002 47 7.80078 72.2998 7.80078zM608.9 592.6h52.5l55.3994 35h-180.8c-28.5 0 -54.7998 -2.7998 -78.7002 -8.2998c-24 -5.5 -46.2002 -14.2998 -66.5996 -26.2998
c-20.4004 -12 -36.2998 -28.7998 -47.6006 -50.5996c-11.2998 -21.7002 -17 -47.8008 -17 -78.3008c0 -39.5 14.1006 -71.7998 42.3008 -96.6992c28.1992 -25 62.3994 -37.4004 102.6 -37.4004c6.5 0 15.5996 0.599609 27.2002 1.90039
c-5.7998 -14.3008 -8.7998 -25.6006 -8.7998 -34c0 -16.9004 8.7998 -36.3008 26.2998 -58.3008c-72.6006 -3.89941 -128 -16.8994 -166.3 -38.8994c-44.1006 -26.6006 -66.1006 -61.6006 -66.1006 -105c0 -29.2002 10.5 -53.6006 31.6006 -73.4004
c21.0996 -19.7998 44.5996 -33.0996 70.5 -39.8994c25.8994 -6.80078 53.0996 -10.2002 81.6992 -10.2002c43.4004 0 84.4004 7.59961 123 22.7998c38.6006 15.2002 67.9004 39 88 71.5c13.6006 22 20.4004 45 20.4004 69c0 24.5996 -6.59961 46.7998 -19.9004 66.5996
c-13.2998 19.8008 -27.6992 34.8008 -43.2998 45.2002c-15.5996 10.4004 -30 21.7002 -43.2998 34s-19.9004 24 -19.9004 35c0 10.4004 5 21.1006 15.1006 32.1006c10 11 21.2002 20.8994 33.5 29.6992c12.2998 8.80078 23.5 22 33.5 39.9004
c10 17.7998 15.0996 38.4004 15.0996 61.7002c-0.0996094 43.5996 -20.2002 81.2002 -60.3994 112.899zM61.5 790h876.9c14.2998 0 26.3994 -5 36.5 -15.0996c10 -10 15.0996 -22.2002 15.0996 -36.5v-876.9c0 -14.2998 -5 -26.4004 -15.0996 -36.5
c-10.1006 -10.0996 -22.2002 -15 -36.4004 -15h-877c-14.2998 0 -26.4004 5 -36.5 15.0996c-10.0996 10.1006 -15 22.2002 -15 36.4004v876.9c0 14.2998 5 26.3994 15.0996 36.5c10 10.0996 22.2002 15.0996 36.4004 15.0996z" />
    <glyph glyph-name="uniE03A" unicode="&#xe03a;" 
d="M741.1 738.5h-77.7998c29.7998 -24.5996 52.2002 -49.9004 67.1006 -75.7998c14.8994 -25.9004 22.3994 -57 22.3994 -93.2998c0 -28.5 -5 -54 -15.0996 -76.3008c-10.1006 -22.2998 -22.2002 -40.6992 -36.5 -54.8994
c-14.2998 -14.2998 -28.5 -27.2002 -42.7998 -38.9004c-14.3008 -11.7002 -26.4004 -23.7002 -36.5 -36c-10 -12.2998 -15.1006 -25.2998 -15.1006 -38.8994c0 -14.3008 6.5 -28.2002 19.4004 -41.8008c13 -13.5996 28.7998 -27.0996 47.5996 -40.2998
c18.7998 -13.2998 37.6006 -27.8994 56.4004 -43.7998s34.7002 -36.2998 47.5996 -61.2998c13 -25 19.4004 -53 19.4004 -84.1006c0 -35 -10 -69 -30.1006 -102.1c-30.1992 -48.5996 -74.2998 -84.2998 -132 -107c-57.6992 -22.7002 -118.899 -34 -183.8 -34
c-53.0996 0 -103.1 8.09961 -149.7 24.2998c-46.5996 16.2002 -81.5996 43.4004 -104.899 81.7002c-14.9004 24.5996 -22.4004 50.9004 -22.4004 78.7998c0 31.7998 9.40039 61.2002 28.2002 88.5c18.7998 27.2002 43.0996 49.9004 72.9004 68.1006
c54.3994 32.3994 137.1 51.8994 247.899 58.2998c-25.8994 33.0996 -38.8994 62.2002 -38.8994 87.5c0 14.2998 4.5 31.0996 13.5996 50.5996c-14.2998 -1.89941 -28.2002 -2.89941 -41.7998 -2.89941c-59.6006 0 -110.7 18.7998 -153.101 56.3994
c-42.3994 37.6006 -63.6992 85.7002 -63.6992 144.7c0 45.4004 8.59961 84.4004 25.7998 117.2s41 58 71.5 75.7998s63.5 30.7998 99.2002 38.9004c35.6992 8.09961 74.7998 12.0996 117.6 12.0996h272.2zM537.9 174.6c-27.2002 0 -54 -2.39941 -80.2002 -7.2998
c-26.2998 -4.89941 -52.7002 -12.5 -79.2002 -22.7998c-26.5996 -10.4004 -48.0996 -26.2998 -64.7002 -47.5996c-16.5 -21.5 -24.7998 -46.8008 -24.7998 -75.9004c0 -27.9004 7.2998 -52.2998 21.9004 -73.4004c14.5996 -21.0996 33.6992 -37.3994 57.3994 -49.0996
s48.1006 -20.2998 73.4004 -25.7998s50.8994 -8.2998 76.7998 -8.2998c51.2002 0 95.9004 11.2998 134.2 34c38.2002 22.6992 57.3994 57.6992 57.3994 105c0 11 -1.2998 21.5 -3.89941 31.5996c-2.60059 10 -7.60059 20.0996 -15.1006 30.0996
s-13.2998 18.3008 -17.5 24.8008c-4.19922 6.5 -12.7998 14.6992 -25.7998 24.7998c-13 10 -21.2002 16.5 -24.7998 19.3994c-3.59961 2.90039 -13.4004 9.90039 -29.7002 20.9004c-16.2002 11 -24.5996 16.9004 -25.2998 17.5
c-12.9004 1.40039 -23 2.09961 -30.0996 2.09961zM474.7 743.3c-40.2002 0 -70.2998 -12.5996 -90.4004 -37.8994c-20.0996 -25.3008 -30.0996 -58.3008 -30.0996 -99.2002c0 -24 3.59961 -48.9004 10.7002 -74.9004c7.09961 -25.8994 17.1992 -50.5996 30.0996 -73.8994
c13 -23.3008 30.0996 -42.5 51.5 -57.4004s45 -22.4004 71 -22.4004c33.0996 0 62.5 13 88.5 38.9004c21.4004 22 32.0996 52.2002 32.0996 90.4004c0 33.0996 -5.69922 67.0996 -17 102.1c-11.2998 35 -30.0996 66.0996 -56.3994 93.2998
c-26.2998 27.4004 -56.2998 41 -90 41z" />
    <glyph glyph-name="uniE03B" unicode="&#xe03b;" 
d="M867.1 733.6c6.5 -12.2998 14.6006 -29.7998 24.3008 -52.5c9.69922 -22.6992 22.3994 -65 37.8994 -126.899c15.6006 -61.9004 25.7998 -124.8 30.6006 -188.601c4.89941 -63.7998 0 -141 -14.6006 -231.399c-14.5996 -90.4004 -41.2998 -178.101 -80.2002 -263
c-8.39941 -18.7998 -21.3994 -33.7002 -38.8994 -44.7002s-36.2998 -16.5 -56.4004 -16.5c-15.5996 0 -29.7998 3.2002 -42.7998 9.7002c-26.5996 12.2998 -44.9004 31.8994 -54.9004 58.7998s-8.89941 53.2998 3.40039 79.2002c31.0996 68.0996 52.5 138.1 64.2002 210
c11.7002 71.8994 15.3994 134 11.2002 186.2c-4.2002 52.1992 -12 101.3 -23.3008 147.3c-11.2998 46 -21.1992 79.0996 -29.6992 99.2002c-8.5 20.0996 -13.9004 32.3994 -16.5 36.8994c-13 25.2998 -15.2002 51.7002 -6.80078 79.2002
c8.40039 27.5 25.6006 48.0996 51.5 61.7002c15.6006 7.7998 31.8008 11.7002 48.6006 11.7002c18.7998 0 36.5996 -5 53.5 -15.1006c16.7998 -9.89941 29.7998 -23.7002 38.8994 -41.2002zM428.6 668.5c18.1006 0 35.5 -4.90039 52 -14.5996
c16.5 -9.7002 29 -23.3008 37.4004 -40.8008c3.90039 -8.39941 7.7998 -17.1992 11.7002 -26.2998c3.89941 -9.09961 11 -28.7998 21.3994 -59.2998c10.4004 -30.5 18.6006 -60 24.8008 -88.5c6.19922 -28.5 11.1992 -64 15.0996 -106.5s4.09961 -82.5996 0.5 -120.6
c-3.59961 -37.9004 -12.7998 -79.1006 -27.7002 -123.5c-14.8994 -44.4004 -35.5996 -85.4004 -62.2002 -123c-19.3994 -28.5 -46.6992 -42.8008 -81.6992 -42.8008c-21.4004 0 -40.5 6.2002 -57.4004 18.5c-22.7002 15.6006 -36.5 36.9004 -41.2998 64.2002
c-4.90039 27.2002 0.799805 52.2002 17 74.9004c23.2998 33.0996 39.2002 71.0996 47.5996 114.2c8.40039 43.0996 10.9004 82.7998 7.2998 119.1c-3.59961 36.2998 -9.69922 71.2998 -18.5 105c-8.7998 33.7002 -16.5 59.2998 -23.2998 76.7998
s-11.2002 27.5 -13.0996 30.1006c-12.2998 24 -13.9004 49.0996 -4.90039 75.2998c9.10059 26.2998 25.9004 45.5 50.6006 57.7998c13.5996 6.7002 28.5 10 44.6992 10zM326.5 444.9c43.4004 -141.301 37.9004 -253.101 -16.5 -335.4
c-8.40039 31.7998 -21.7002 62.7002 -39.9004 92.7998c-18.0996 30.1006 -36.5996 54.7998 -55.3994 73.9004c-18.7998 19.0996 -38.6006 36.8994 -59.2998 53.5c-20.7002 16.5 -35.8008 27.7002 -45.2002 33.5c-9.40039 5.7998 -16 9.7002 -19.9004 11.7002
c-24 13 -39.8994 32.5996 -47.5996 58.7998c-7.7998 26.2002 -5.2002 51.3994 7.7998 75.2998c13 24 32.9004 39.9004 59.7998 47.5996c26.9004 7.80078 52.2998 5.2002 76.2998 -7.7998l7.80078 -3.89941c4.5 -3.2002 9.69922 -6.60059 15.5996 -10.2002
c5.7998 -3.60059 13.4004 -8.60059 22.7998 -15.1006c9.40039 -6.5 18.7998 -13.0996 28.2002 -19.8994s19.9004 -15.1006 31.5996 -24.7998c11.7002 -9.7002 22.9004 -19.7002 33.9004 -30zM702.8 423.5c10.4004 -66.0996 12 -134.2 4.90039 -204.2
c-6.5 -61.5996 -20.7002 -122.5 -42.7998 -182.8c-6.5 49.2998 -19.1006 97.5 -37.9004 144.9c9.7002 65.5 9.09961 136.1 -1.90039 211.899c-11 73.2002 -29.7998 140.601 -56.3994 202.2c47.2998 -38.9004 89.0996 -80.4004 125.399 -124.4
c3.80078 -20.6992 6.7002 -36.5996 8.7002 -47.5996z" />
    <glyph glyph-name="uniE03C" unicode="&#xe03c;" 
d="M382.4 595.6c33.0996 0 59.5996 -17.1992 79.6992 -51.5c20.1006 -34.3994 30.1006 -69.6992 30.1006 -106c0 -25.2998 -7.5 -45.3994 -22.4004 -60.2998c-16.2002 -17.5 -35.5996 -26.2998 -58.2998 -26.2998c-33.7002 0 -60.2998 16.5 -79.7002 49.5996
c-19.3994 33.1006 -29.2002 67.4004 -29.2002 103.101c0 27.2002 6.60059 49.2998 19.9004 66.0996c13.4004 16.7998 33.2998 25.2998 59.9004 25.2998zM425.1 216.4c2.60059 0 6 -0.200195 10.2002 -0.5c4.2002 -0.300781 7.2998 -0.5 9.2002 -0.5
c1.90039 -1.30078 7 -4.7002 15.0996 -10.2002c8.10059 -5.5 13.6006 -9.40039 16.5 -11.7002c2.90039 -2.2998 7.90039 -6.2002 15.1006 -11.7002s12.2998 -10 15.5996 -13.5996c3.2002 -3.60059 7.5 -8.2998 12.6006 -14.1006
c5.09961 -5.7998 8.89941 -11.1992 11.1992 -16c2.30078 -4.89941 4.40039 -10.5 6.30078 -17c1.89941 -6.5 2.89941 -13 2.89941 -19.3994c0 -31.7998 -12.7998 -55.1006 -38.3994 -70c-25.6006 -14.9004 -55.6006 -22.4004 -89.9004 -22.4004
c-38.2002 0 -73.2002 8.60059 -105 25.7998c-31.7998 17.2002 -47.5996 43.6006 -47.5996 79.2002c0 25.2998 9.89941 46 29.6992 62.2002c19.8008 16.2002 41.2002 26.9004 64.2002 32.0996c22.9004 5.2002 47.1006 7.80078 72.2998 7.80078zM508.8 592.6h51.5l56.4004 35
h-180.9c-29.2002 0 -55.5996 -2.7998 -79.2002 -8.2998c-23.6992 -5.5 -45.6992 -14.2998 -66.0996 -26.2998s-36.2998 -28.7998 -47.5996 -50.5996c-11.3008 -21.7002 -17 -47.8008 -17 -78.3008c0 -39.5 14.0996 -71.7998 42.2998 -96.6992
c28.2002 -24.9004 62.0996 -37.4004 101.6 -37.4004c7.10059 0 16.5 0.599609 28.2002 1.90039c-5.7998 -14.3008 -8.7998 -25.6006 -8.7998 -34c0 -16.9004 8.7998 -36.3008 26.2998 -58.3008c-72.5996 -3.89941 -128 -16.8994 -166.2 -38.8994
c-44.7002 -27.2002 -67.0996 -62.2002 -67.0996 -105c0 -29.2002 10.5 -53.6006 31.5996 -73.4004c21.1006 -19.7998 44.7002 -33.0996 71 -39.8994c26.2998 -6.80078 53.6006 -10.2002 82.2002 -10.2002c43.4004 0 84.4004 7.59961 123 22.7998s67.9004 39 88 71.5
c13.5996 22 20.4004 45 20.4004 69c0 24.5996 -6.60059 46.7998 -19.9004 66.5996c-13.2998 19.8008 -27.9004 34.8008 -43.7002 45.2002c-15.8994 10.4004 -30.5 21.7002 -43.7998 34s-19.9004 24 -19.9004 35c0 10.4004 5 21.1006 15.1006 32.1006
c10 11 21.2002 20.8994 33.5 29.6992c12.2998 8.80078 23.5 22 33.5 39.9004s15.0996 38.4004 15.0996 61.7002c-0.200195 44.2002 -20 81.7998 -59.5 112.899zM833.5 294.2v41.7998h-86.5v86.5h-43.7998v-86.5h-86.5v-41.7998h86.5v-86.5h43.7998v86.5h86.5zM61.5 790
h876.9c14.2998 0 26.3994 -5 36.5 -15.0996c10 -10 15.0996 -22.2002 15.0996 -36.5v-876.9c0 -14.2998 -5 -26.4004 -15.0996 -36.5c-10.1006 -10.0996 -22.2002 -15 -36.4004 -15h-877c-14.2998 0 -26.4004 5 -36.5 15.0996c-10.0996 10.1006 -15 22.2002 -15 36.4004
v876.9c0 14.2998 5 26.3994 15.0996 36.5c10 10.0996 22.2002 15.0996 36.4004 15.0996z" />
    <glyph glyph-name="uniE03D" unicode="&#xe03d;" 
d="M990 354.8v-63.5996h-130.1v-129.101h-65.5v129.101h-130.101v63.5996h130.101v130.101h65.5v-130.101h130.1zM579.2 741.1h-77.2002c30 -24.7998 52.5 -50.1992 67.5 -76.2998c15 -26.0996 22.5 -57.3994 22.5 -93.8994c0 -28.7002 -5.09961 -54.3008 -15.2002 -76.8008
c-10.0996 -22.5 -22.2998 -40.8994 -36.7002 -55.2998c-14.2998 -14.2998 -28.6992 -27.3994 -43 -39.0996c-14.2998 -11.7002 -26.5996 -23.7998 -36.6992 -36.2002c-10.1006 -12.4004 -15.2002 -25.4004 -15.2002 -39.0996c0 -14.3008 6.5 -28.4004 19.5996 -42.1006
c13 -13.7002 29 -27.2002 47.9004 -40.5996c18.8994 -13.4004 37.7002 -28 56.2002 -44c18.5996 -16 34.3994 -36.5 47.3994 -61.6006c13 -25.0996 19.6006 -53.2998 19.6006 -84.5996c0 -37.2002 -10.1006 -71.4004 -30.3008 -102.7
c-30.5996 -48.8994 -75 -84.7998 -133 -107.6s-119.6 -34.2002 -184.899 -34.2002c-53.5 0 -103.7 8.2002 -150.601 24.5c-46.8994 16.2998 -82.0996 43.7002 -105.6 82.2002c-14.2998 25.3994 -21.5 51.7998 -21.5 79.2002c0 31.8994 9.2998 61.5996 27.9004 89
c18.5996 27.3994 42.8994 50.1992 72.8994 68.5c54.7002 32.5996 138.2 52.0996 250.3 58.5996c-26.0996 33.2998 -39.0996 62.5996 -39.0996 88c0 15.5996 4.2002 32.5996 12.7002 50.9004c-13.7002 -2 -27.7002 -2.90039 -42.1006 -2.90039
c-60 0 -111.199 18.9004 -153.6 56.7002s-63.5996 86.3994 -63.5996 145.7c0 45.5996 8.59961 84.8994 25.8994 117.899c17.2998 32.9004 41.1006 58.4004 71.4004 76.2998c30.2998 17.9004 63.3994 31 99.2998 39.1006c35.9004 8.2002 75.5996 12.2002 119.3 12.2002h272.9
zM375.8 173.8c-27.3994 0 -54.2998 -2.39941 -80.7002 -7.2998c-26.3994 -4.90039 -53 -12.5996 -79.6992 -23c-26.7002 -10.4004 -48.4004 -26.4004 -65 -47.9004c-16.6006 -21.5 -24.9004 -46.8994 -24.9004 -76.2998c0 -36.5 12.9004 -67.2002 38.5996 -91.8994
c25.8008 -24.8008 55.1006 -41.9004 88 -51.3008c32.9004 -9.5 67.3008 -14.1992 103.2 -14.1992c32.6006 0 62.6006 4.09961 90 12.1992c27.4004 8.2002 51.2998 23.3008 71.9004 45.5c20.5 22.2002 30.7998 49.6006 30.7998 82.2002
c0 11.1006 -1.2998 21.7002 -3.90039 31.7998c-2.59961 10.1006 -7.69922 20.2002 -15.1992 30.3008c-7.5 10.0996 -13.4004 18.3994 -17.6006 24.8994s-12.8994 14.7998 -25.8994 24.9004c-13 10.0996 -21.4004 16.5996 -24.9004 19.5996
c-3.59961 2.90039 -13.5 9.90039 -29.7998 21c-16.2998 11.1006 -24.7998 17 -25.4004 17.6006c-13.2002 1.2998 -23 1.89941 -29.5 1.89941zM311.2 746c-40.4004 0 -70.6006 -12.7002 -90.5 -38.0996c-19.9004 -25.4004 -29.7998 -58.7002 -29.7998 -99.8008
c0 -54.0996 14.7998 -106 44.5 -155.5c29.6992 -49.5996 69.2998 -74.2998 118.8 -74.2998c15 0 31 3.7002 47.8994 11.2002c17 7.5 30.6006 16.7998 41.1006 27.9004c22.2002 22.7998 33.2998 53.0996 33.2998 91c0 33.2998 -5.90039 67.5 -17.5996 102.699
c-11.7002 35.2002 -30.8008 66.5 -57.2002 93.9004c-26.4004 27.2998 -56.6006 41 -90.5 41z" />
    <glyph glyph-name="uniE03E" unicode="&#xe03e;" 
d="M360 562.5h-105l197.4 -315v-210h96.2998v210l196.399 315h-105.1l-140 -227.5zM990 790v-980h-980v980h980z" />
    <glyph glyph-name="uniE03F" unicode="&#xe03f;" 
d="M43.0996 790h195.4l261.5 -424.9l261.5 424.9h195.4l-367.5 -588.2v-391.8h-178.801v391.8z" />
    <glyph glyph-name="uniE040" unicode="&#xe040;" 
d="M68.2998 790h863.3l-78.7998 -880.8l-353.8 -99.2002l-351.9 99.2002zM760.6 503.2l9.7002 106.899h-540.6l28.2002 -327.6h375.3l-13.6006 -139l-120.6 -33.0996l-120.6 33.0996l-7.80078 85.5996h-106.8l13.6006 -170.1l221.6 -61.4004h1.90039l219.699 61.2002
l31.1006 333.5h-394.601l-8.69922 110.8h412.199v0.100586z" />
    <glyph glyph-name="uniE041" unicode="&#xe041;" 
d="M877.2 -190h-754.4c-31.0996 0 -57.7002 11 -79.7002 33.0996c-22 22.1006 -33.0996 48.6006 -33.0996 79.7002v754.4c0 31.0996 11 57.7002 33.0996 79.7002c22 22 48.6006 33.0996 79.7002 33.0996h754.4c31.0996 0 57.7002 -11 79.7002 -33.0996
c22 -22 33.0996 -48.6006 33.0996 -79.7002v-754.4c0 -31.0996 -11 -57.7002 -33.0996 -79.7002c-22.1006 -22 -48.6006 -33.0996 -79.7002 -33.0996zM500 488.6c-51.9004 0 -96.2002 -18.5 -133.2 -55.3994c-36.8994 -36.9004 -55.3994 -81.2998 -55.3994 -133.2
s18.5 -96.2998 55.3994 -133.2c36.9004 -36.8994 81.2998 -55.3994 133.2 -55.3994s96.2998 18.5 133.2 55.3994c36.8994 36.9004 55.3994 81.2998 55.3994 133.2s-18.5 96.2002 -55.3994 133.2c-36.9004 36.8994 -81.2998 55.3994 -133.2 55.3994zM877.2 526.5v112.8
c0 10.4004 -3.7002 19.2998 -11.2002 26.7002c-7.5 7.5 -16.4004 11.2002 -26.7002 11.2002h-112.8c-10.4004 0 -19.2998 -3.7002 -26.7002 -11.2002c-7.39941 -7.5 -11.2002 -16.4004 -11.2002 -26.7002v-112.8c0 -11 3.60059 -20.0996 10.7002 -27.2002
c7.10059 -7.09961 16.2002 -10.7002 27.2002 -10.7002h112.8c10.4004 0 19.2998 3.7002 26.7002 11.2002c7.5 7.40039 11.2002 16.4004 11.2002 26.7002zM877.2 -39.2998v415.1h-85.6006c6.5 -24 9.7002 -49.2998 9.7002 -75.7998c0 -83 -29.5 -153.9 -88.5 -212.9
s-130 -88.5 -212.899 -88.5c-82.9004 0 -153.9 29.5 -212.9 88.5s-88.5 130 -88.5 212.9c0 22.7002 3.2002 48 9.7002 75.7998h-85.6006v-415.1c0 -10.4004 3.7002 -19.2998 11.2002 -26.7002c7.5 -7.5 16.4004 -11.2002 26.7002 -11.2002h678.6
c10.4004 0 19.3008 3.7002 26.7002 11.2002c7.7002 7.40039 11.4004 16.2998 11.4004 26.7002z" />
    <glyph glyph-name="uniE042" unicode="&#xe042;" 
d="M949.2 462.9c11.2998 0 21 -4 28.8994 -11.9004c7.90039 -7.90039 11.9004 -17.5996 11.9004 -28.9004c0 -11.2998 -4 -21 -11.9004 -28.8994c-7.89941 -7.90039 -17.5996 -11.9004 -28.8994 -11.9004h-63c5.7002 -29.5 8.5 -56.3994 8.5 -80.7998
c0 -108.9 -38.6006 -201.9 -115.7 -279s-170.1 -115.7 -279 -115.7c-78.2998 0 -149.6 21.2998 -213.9 63.7998c-64.3994 42.5 -112.399 98.4004 -144.199 167.601h-91c-11.3008 0 -21 4 -28.9004 11.8994c-8 7.80078 -12 17.5 -12 28.8008c0 11.2998 4 21 11.9004 28.8994
c7.89941 7.90039 17.5996 11.9004 28.8994 11.9004h63.7998c-5.69922 25 -8.5 52.2002 -8.5 81.7002c0 108.3 38.6006 201 115.7 278.199c77.2002 77.1006 169.9 115.7 278.2 115.7c78.2998 0 149.7 -21.2998 214.4 -63.7998c64.5996 -42.5 112.8 -98.4004 144.6 -167.6
h90.2002zM812.2 300.4c0 27.7998 -3.40039 54.6992 -10.2002 80.7998h-470.4c-11.2998 0 -21 4 -28.8994 11.8994c-7.90039 7.90039 -11.9004 17.6006 -11.9004 28.9004s4 21 11.9004 28.9004c7.89941 7.89941 17.5996 11.8994 28.8994 11.8994h434.7
c-28.3994 45.4004 -66.0996 81.5 -113.1 108.5c-47.1006 26.9004 -98.1006 40.4004 -153.101 40.4004c-86.1992 0 -159.8 -30.5 -220.8 -91.5s-91.3994 -134.3 -91.3994 -219.9c0 -26.0996 3.69922 -53.2998 11.0996 -81.6992h470.4c11.2998 0 21 -4 28.8994 -11.9004
c7.90039 -7.90039 11.9004 -17.5996 11.9004 -28.9004c0 -11.2998 -4 -21 -11.9004 -28.8994c-7.89941 -7.90039 -17.5996 -11.9004 -28.8994 -11.9004h-434.801c27.8008 -45.3994 65.2002 -81.5 112.301 -108.5c47.0996 -26.8994 98.0996 -40.3994 153.1 -40.3994
c86.2002 0 159.8 30.5 220.8 91.3994c60.9004 61.0996 91.4004 134.7 91.4004 220.9zM291.6 300.4c0 11.2998 4.10059 21 12.3008 28.8994c8.19922 7.90039 18 11.9004 29.2998 11.9004h336c10.7998 0 20.2998 -4.10059 28.5 -12.2998
c8.2002 -8.2002 12.2998 -17.7002 12.2998 -28.5c0 -11.3008 -4 -21.1006 -11.9004 -29.3008c-7.89941 -8.19922 -17.5996 -12.2998 -28.8994 -12.2998h-336c-11.2998 0 -21.1006 4.10059 -29.2998 12.2998c-8.2002 8.2002 -12.3008 18 -12.3008 29.3008z" />
    </font>
</defs>
</svg>
